%TF.GenerationSoftware,KiCad,Pcbnew,(5.1.6)-1*%
%TF.CreationDate,2022-09-20T10:12:05-04:00*%
%TF.ProjectId,3dfx-sli-1slot,33646678-2d73-46c6-992d-31736c6f742e,rev?*%
%TF.SameCoordinates,Original*%
%TF.FileFunction,Legend,Bot*%
%TF.FilePolarity,Positive*%
%FSLAX46Y46*%
G04 Gerber Fmt 4.6, Leading zero omitted, Abs format (unit mm)*
G04 Created by KiCad (PCBNEW (5.1.6)-1) date 2022-09-20 10:12:05*
%MOMM*%
%LPD*%
G01*
G04 APERTURE LIST*
%ADD10C,0.150000*%
%ADD11C,0.120000*%
G04 APERTURE END LIST*
D10*
X156638047Y-90892380D02*
X156638047Y-91606666D01*
X156685666Y-91749523D01*
X156780904Y-91844761D01*
X156923761Y-91892380D01*
X157019000Y-91892380D01*
X155685666Y-91892380D02*
X156161857Y-91892380D01*
X156161857Y-90892380D01*
X154780904Y-91797142D02*
X154828523Y-91844761D01*
X154971380Y-91892380D01*
X155066619Y-91892380D01*
X155209476Y-91844761D01*
X155304714Y-91749523D01*
X155352333Y-91654285D01*
X155399952Y-91463809D01*
X155399952Y-91320952D01*
X155352333Y-91130476D01*
X155304714Y-91035238D01*
X155209476Y-90940000D01*
X155066619Y-90892380D01*
X154971380Y-90892380D01*
X154828523Y-90940000D01*
X154780904Y-90987619D01*
X154066619Y-90892380D02*
X154066619Y-91606666D01*
X154114238Y-91749523D01*
X154209476Y-91844761D01*
X154352333Y-91892380D01*
X154447571Y-91892380D01*
X153114238Y-91892380D02*
X153590428Y-91892380D01*
X153590428Y-90892380D01*
X152209476Y-91797142D02*
X152257095Y-91844761D01*
X152399952Y-91892380D01*
X152495190Y-91892380D01*
X152638047Y-91844761D01*
X152733285Y-91749523D01*
X152780904Y-91654285D01*
X152828523Y-91463809D01*
X152828523Y-91320952D01*
X152780904Y-91130476D01*
X152733285Y-91035238D01*
X152638047Y-90940000D01*
X152495190Y-90892380D01*
X152399952Y-90892380D01*
X152257095Y-90940000D01*
X152209476Y-90987619D01*
X151495190Y-90892380D02*
X151495190Y-91606666D01*
X151542809Y-91749523D01*
X151638047Y-91844761D01*
X151780904Y-91892380D01*
X151876142Y-91892380D01*
X150542809Y-91892380D02*
X151019000Y-91892380D01*
X151019000Y-90892380D01*
X149638047Y-91797142D02*
X149685666Y-91844761D01*
X149828523Y-91892380D01*
X149923761Y-91892380D01*
X150066619Y-91844761D01*
X150161857Y-91749523D01*
X150209476Y-91654285D01*
X150257095Y-91463809D01*
X150257095Y-91320952D01*
X150209476Y-91130476D01*
X150161857Y-91035238D01*
X150066619Y-90940000D01*
X149923761Y-90892380D01*
X149828523Y-90892380D01*
X149685666Y-90940000D01*
X149638047Y-90987619D01*
X148923761Y-90892380D02*
X148923761Y-91606666D01*
X148971380Y-91749523D01*
X149066619Y-91844761D01*
X149209476Y-91892380D01*
X149304714Y-91892380D01*
X147971380Y-91892380D02*
X148447571Y-91892380D01*
X148447571Y-90892380D01*
X147066619Y-91797142D02*
X147114238Y-91844761D01*
X147257095Y-91892380D01*
X147352333Y-91892380D01*
X147495190Y-91844761D01*
X147590428Y-91749523D01*
X147638047Y-91654285D01*
X147685666Y-91463809D01*
X147685666Y-91320952D01*
X147638047Y-91130476D01*
X147590428Y-91035238D01*
X147495190Y-90940000D01*
X147352333Y-90892380D01*
X147257095Y-90892380D01*
X147114238Y-90940000D01*
X147066619Y-90987619D01*
X133167238Y-103576380D02*
X133167238Y-102909714D01*
X133167238Y-103100190D02*
X133119619Y-103004952D01*
X133072000Y-102957333D01*
X132976761Y-102909714D01*
X132881523Y-102909714D01*
X132167238Y-103528761D02*
X132262476Y-103576380D01*
X132452952Y-103576380D01*
X132548190Y-103528761D01*
X132595809Y-103433523D01*
X132595809Y-103052571D01*
X132548190Y-102957333D01*
X132452952Y-102909714D01*
X132262476Y-102909714D01*
X132167238Y-102957333D01*
X132119619Y-103052571D01*
X132119619Y-103147809D01*
X132595809Y-103243047D01*
X131786285Y-102909714D02*
X131548190Y-103576380D01*
X131310095Y-102909714D01*
X130929142Y-103481142D02*
X130881523Y-103528761D01*
X130929142Y-103576380D01*
X130976761Y-103528761D01*
X130929142Y-103481142D01*
X130929142Y-103576380D01*
X130262476Y-102576380D02*
X130167238Y-102576380D01*
X130072000Y-102624000D01*
X130024380Y-102671619D01*
X129976761Y-102766857D01*
X129929142Y-102957333D01*
X129929142Y-103195428D01*
X129976761Y-103385904D01*
X130024380Y-103481142D01*
X130072000Y-103528761D01*
X130167238Y-103576380D01*
X130262476Y-103576380D01*
X130357714Y-103528761D01*
X130405333Y-103481142D01*
X130452952Y-103385904D01*
X130500571Y-103195428D01*
X130500571Y-102957333D01*
X130452952Y-102766857D01*
X130405333Y-102671619D01*
X130357714Y-102624000D01*
X130262476Y-102576380D01*
X139580333Y-104433714D02*
X139389857Y-105100380D01*
X139199380Y-104624190D01*
X139008904Y-105100380D01*
X138818428Y-104433714D01*
X138437476Y-105100380D02*
X138437476Y-104433714D01*
X138437476Y-104100380D02*
X138485095Y-104148000D01*
X138437476Y-104195619D01*
X138389857Y-104148000D01*
X138437476Y-104100380D01*
X138437476Y-104195619D01*
X137961285Y-105100380D02*
X137961285Y-104433714D01*
X137961285Y-104624190D02*
X137913666Y-104528952D01*
X137866047Y-104481333D01*
X137770809Y-104433714D01*
X137675571Y-104433714D01*
X136961285Y-105052761D02*
X137056523Y-105100380D01*
X137247000Y-105100380D01*
X137342238Y-105052761D01*
X137389857Y-104957523D01*
X137389857Y-104576571D01*
X137342238Y-104481333D01*
X137247000Y-104433714D01*
X137056523Y-104433714D01*
X136961285Y-104481333D01*
X136913666Y-104576571D01*
X136913666Y-104671809D01*
X137389857Y-104767047D01*
X136627952Y-104433714D02*
X136247000Y-104433714D01*
X136485095Y-104100380D02*
X136485095Y-104957523D01*
X136437476Y-105052761D01*
X136342238Y-105100380D01*
X136247000Y-105100380D01*
X135485095Y-105100380D02*
X135485095Y-104576571D01*
X135532714Y-104481333D01*
X135627952Y-104433714D01*
X135818428Y-104433714D01*
X135913666Y-104481333D01*
X135485095Y-105052761D02*
X135580333Y-105100380D01*
X135818428Y-105100380D01*
X135913666Y-105052761D01*
X135961285Y-104957523D01*
X135961285Y-104862285D01*
X135913666Y-104767047D01*
X135818428Y-104719428D01*
X135580333Y-104719428D01*
X135485095Y-104671809D01*
X135008904Y-104433714D02*
X135008904Y-105433714D01*
X135008904Y-104481333D02*
X134913666Y-104433714D01*
X134723190Y-104433714D01*
X134627952Y-104481333D01*
X134580333Y-104528952D01*
X134532714Y-104624190D01*
X134532714Y-104909904D01*
X134580333Y-105005142D01*
X134627952Y-105052761D01*
X134723190Y-105100380D01*
X134913666Y-105100380D01*
X135008904Y-105052761D01*
X133389857Y-104195619D02*
X133342238Y-104148000D01*
X133247000Y-104100380D01*
X133008904Y-104100380D01*
X132913666Y-104148000D01*
X132866047Y-104195619D01*
X132818428Y-104290857D01*
X132818428Y-104386095D01*
X132866047Y-104528952D01*
X133437476Y-105100380D01*
X132818428Y-105100380D01*
X132199380Y-104100380D02*
X132104142Y-104100380D01*
X132008904Y-104148000D01*
X131961285Y-104195619D01*
X131913666Y-104290857D01*
X131866047Y-104481333D01*
X131866047Y-104719428D01*
X131913666Y-104909904D01*
X131961285Y-105005142D01*
X132008904Y-105052761D01*
X132104142Y-105100380D01*
X132199380Y-105100380D01*
X132294619Y-105052761D01*
X132342238Y-105005142D01*
X132389857Y-104909904D01*
X132437476Y-104719428D01*
X132437476Y-104481333D01*
X132389857Y-104290857D01*
X132342238Y-104195619D01*
X132294619Y-104148000D01*
X132199380Y-104100380D01*
X131485095Y-104195619D02*
X131437476Y-104148000D01*
X131342238Y-104100380D01*
X131104142Y-104100380D01*
X131008904Y-104148000D01*
X130961285Y-104195619D01*
X130913666Y-104290857D01*
X130913666Y-104386095D01*
X130961285Y-104528952D01*
X131532714Y-105100380D01*
X130913666Y-105100380D01*
X130532714Y-104195619D02*
X130485095Y-104148000D01*
X130389857Y-104100380D01*
X130151761Y-104100380D01*
X130056523Y-104148000D01*
X130008904Y-104195619D01*
X129961285Y-104290857D01*
X129961285Y-104386095D01*
X130008904Y-104528952D01*
X130580333Y-105100380D01*
X129961285Y-105100380D01*
X173250047Y-104100380D02*
X172631000Y-104100380D01*
X172964333Y-104481333D01*
X172821476Y-104481333D01*
X172726238Y-104528952D01*
X172678619Y-104576571D01*
X172631000Y-104671809D01*
X172631000Y-104909904D01*
X172678619Y-105005142D01*
X172726238Y-105052761D01*
X172821476Y-105100380D01*
X173107190Y-105100380D01*
X173202428Y-105052761D01*
X173250047Y-105005142D01*
X172202428Y-105100380D02*
X172202428Y-104100380D01*
X171964333Y-104100380D01*
X171821476Y-104148000D01*
X171726238Y-104243238D01*
X171678619Y-104338476D01*
X171631000Y-104528952D01*
X171631000Y-104671809D01*
X171678619Y-104862285D01*
X171726238Y-104957523D01*
X171821476Y-105052761D01*
X171964333Y-105100380D01*
X172202428Y-105100380D01*
X171345285Y-104433714D02*
X170964333Y-104433714D01*
X171202428Y-105100380D02*
X171202428Y-104243238D01*
X171154809Y-104148000D01*
X171059571Y-104100380D01*
X170964333Y-104100380D01*
X170726238Y-105100380D02*
X170202428Y-104433714D01*
X170726238Y-104433714D02*
X170202428Y-105100380D01*
X169107190Y-105052761D02*
X168964333Y-105100380D01*
X168726238Y-105100380D01*
X168631000Y-105052761D01*
X168583380Y-105005142D01*
X168535761Y-104909904D01*
X168535761Y-104814666D01*
X168583380Y-104719428D01*
X168631000Y-104671809D01*
X168726238Y-104624190D01*
X168916714Y-104576571D01*
X169011952Y-104528952D01*
X169059571Y-104481333D01*
X169107190Y-104386095D01*
X169107190Y-104290857D01*
X169059571Y-104195619D01*
X169011952Y-104148000D01*
X168916714Y-104100380D01*
X168678619Y-104100380D01*
X168535761Y-104148000D01*
X167631000Y-105100380D02*
X168107190Y-105100380D01*
X168107190Y-104100380D01*
X167297666Y-105100380D02*
X167297666Y-104100380D01*
X165726238Y-104576571D02*
X165583380Y-104624190D01*
X165535761Y-104671809D01*
X165488142Y-104767047D01*
X165488142Y-104909904D01*
X165535761Y-105005142D01*
X165583380Y-105052761D01*
X165678619Y-105100380D01*
X166059571Y-105100380D01*
X166059571Y-104100380D01*
X165726238Y-104100380D01*
X165631000Y-104148000D01*
X165583380Y-104195619D01*
X165535761Y-104290857D01*
X165535761Y-104386095D01*
X165583380Y-104481333D01*
X165631000Y-104528952D01*
X165726238Y-104576571D01*
X166059571Y-104576571D01*
X165059571Y-105100380D02*
X165059571Y-104433714D01*
X165059571Y-104624190D02*
X165011952Y-104528952D01*
X164964333Y-104481333D01*
X164869095Y-104433714D01*
X164773857Y-104433714D01*
X164440523Y-105100380D02*
X164440523Y-104433714D01*
X164440523Y-104100380D02*
X164488142Y-104148000D01*
X164440523Y-104195619D01*
X164392904Y-104148000D01*
X164440523Y-104100380D01*
X164440523Y-104195619D01*
X163535761Y-105100380D02*
X163535761Y-104100380D01*
X163535761Y-105052761D02*
X163631000Y-105100380D01*
X163821476Y-105100380D01*
X163916714Y-105052761D01*
X163964333Y-105005142D01*
X164011952Y-104909904D01*
X164011952Y-104624190D01*
X163964333Y-104528952D01*
X163916714Y-104481333D01*
X163821476Y-104433714D01*
X163631000Y-104433714D01*
X163535761Y-104481333D01*
X162631000Y-104433714D02*
X162631000Y-105243238D01*
X162678619Y-105338476D01*
X162726238Y-105386095D01*
X162821476Y-105433714D01*
X162964333Y-105433714D01*
X163059571Y-105386095D01*
X162631000Y-105052761D02*
X162726238Y-105100380D01*
X162916714Y-105100380D01*
X163011952Y-105052761D01*
X163059571Y-105005142D01*
X163107190Y-104909904D01*
X163107190Y-104624190D01*
X163059571Y-104528952D01*
X163011952Y-104481333D01*
X162916714Y-104433714D01*
X162726238Y-104433714D01*
X162631000Y-104481333D01*
X161773857Y-105052761D02*
X161869095Y-105100380D01*
X162059571Y-105100380D01*
X162154809Y-105052761D01*
X162202428Y-104957523D01*
X162202428Y-104576571D01*
X162154809Y-104481333D01*
X162059571Y-104433714D01*
X161869095Y-104433714D01*
X161773857Y-104481333D01*
X161726238Y-104576571D01*
X161726238Y-104671809D01*
X162202428Y-104767047D01*
X160250047Y-105481333D02*
X160297666Y-105433714D01*
X160392904Y-105290857D01*
X160440523Y-105195619D01*
X160488142Y-105052761D01*
X160535761Y-104814666D01*
X160535761Y-104624190D01*
X160488142Y-104386095D01*
X160440523Y-104243238D01*
X160392904Y-104148000D01*
X160297666Y-104005142D01*
X160250047Y-103957523D01*
X159916714Y-105052761D02*
X159821476Y-105100380D01*
X159631000Y-105100380D01*
X159535761Y-105052761D01*
X159488142Y-104957523D01*
X159488142Y-104909904D01*
X159535761Y-104814666D01*
X159631000Y-104767047D01*
X159773857Y-104767047D01*
X159869095Y-104719428D01*
X159916714Y-104624190D01*
X159916714Y-104576571D01*
X159869095Y-104481333D01*
X159773857Y-104433714D01*
X159631000Y-104433714D01*
X159535761Y-104481333D01*
X159059571Y-105100380D02*
X159059571Y-104433714D01*
X159059571Y-104100380D02*
X159107190Y-104148000D01*
X159059571Y-104195619D01*
X159011952Y-104148000D01*
X159059571Y-104100380D01*
X159059571Y-104195619D01*
X158583380Y-104433714D02*
X158583380Y-105100380D01*
X158583380Y-104528952D02*
X158535761Y-104481333D01*
X158440523Y-104433714D01*
X158297666Y-104433714D01*
X158202428Y-104481333D01*
X158154809Y-104576571D01*
X158154809Y-105100380D01*
X157250047Y-104433714D02*
X157250047Y-105243238D01*
X157297666Y-105338476D01*
X157345285Y-105386095D01*
X157440523Y-105433714D01*
X157583380Y-105433714D01*
X157678619Y-105386095D01*
X157250047Y-105052761D02*
X157345285Y-105100380D01*
X157535761Y-105100380D01*
X157631000Y-105052761D01*
X157678619Y-105005142D01*
X157726238Y-104909904D01*
X157726238Y-104624190D01*
X157678619Y-104528952D01*
X157631000Y-104481333D01*
X157535761Y-104433714D01*
X157345285Y-104433714D01*
X157250047Y-104481333D01*
X156631000Y-105100380D02*
X156726238Y-105052761D01*
X156773857Y-104957523D01*
X156773857Y-104100380D01*
X155869095Y-105052761D02*
X155964333Y-105100380D01*
X156154809Y-105100380D01*
X156250047Y-105052761D01*
X156297666Y-104957523D01*
X156297666Y-104576571D01*
X156250047Y-104481333D01*
X156154809Y-104433714D01*
X155964333Y-104433714D01*
X155869095Y-104481333D01*
X155821476Y-104576571D01*
X155821476Y-104671809D01*
X156297666Y-104767047D01*
X154678619Y-105052761D02*
X154583380Y-105100380D01*
X154392904Y-105100380D01*
X154297666Y-105052761D01*
X154250047Y-104957523D01*
X154250047Y-104909904D01*
X154297666Y-104814666D01*
X154392904Y-104767047D01*
X154535761Y-104767047D01*
X154631000Y-104719428D01*
X154678619Y-104624190D01*
X154678619Y-104576571D01*
X154631000Y-104481333D01*
X154535761Y-104433714D01*
X154392904Y-104433714D01*
X154297666Y-104481333D01*
X153678619Y-105100380D02*
X153773857Y-105052761D01*
X153821476Y-104957523D01*
X153821476Y-104100380D01*
X153154809Y-105100380D02*
X153250047Y-105052761D01*
X153297666Y-105005142D01*
X153345285Y-104909904D01*
X153345285Y-104624190D01*
X153297666Y-104528952D01*
X153250047Y-104481333D01*
X153154809Y-104433714D01*
X153011952Y-104433714D01*
X152916714Y-104481333D01*
X152869095Y-104528952D01*
X152821476Y-104624190D01*
X152821476Y-104909904D01*
X152869095Y-105005142D01*
X152916714Y-105052761D01*
X153011952Y-105100380D01*
X153154809Y-105100380D01*
X152535761Y-104433714D02*
X152154809Y-104433714D01*
X152392904Y-104100380D02*
X152392904Y-104957523D01*
X152345285Y-105052761D01*
X152250047Y-105100380D01*
X152154809Y-105100380D01*
X151107190Y-105052761D02*
X151011952Y-105100380D01*
X150821476Y-105100380D01*
X150726238Y-105052761D01*
X150678619Y-104957523D01*
X150678619Y-104909904D01*
X150726238Y-104814666D01*
X150821476Y-104767047D01*
X150964333Y-104767047D01*
X151059571Y-104719428D01*
X151107190Y-104624190D01*
X151107190Y-104576571D01*
X151059571Y-104481333D01*
X150964333Y-104433714D01*
X150821476Y-104433714D01*
X150726238Y-104481333D01*
X150250047Y-104433714D02*
X150250047Y-105433714D01*
X150250047Y-104481333D02*
X150154809Y-104433714D01*
X149964333Y-104433714D01*
X149869095Y-104481333D01*
X149821476Y-104528952D01*
X149773857Y-104624190D01*
X149773857Y-104909904D01*
X149821476Y-105005142D01*
X149869095Y-105052761D01*
X149964333Y-105100380D01*
X150154809Y-105100380D01*
X150250047Y-105052761D01*
X148916714Y-105100380D02*
X148916714Y-104576571D01*
X148964333Y-104481333D01*
X149059571Y-104433714D01*
X149250047Y-104433714D01*
X149345285Y-104481333D01*
X148916714Y-105052761D02*
X149011952Y-105100380D01*
X149250047Y-105100380D01*
X149345285Y-105052761D01*
X149392904Y-104957523D01*
X149392904Y-104862285D01*
X149345285Y-104767047D01*
X149250047Y-104719428D01*
X149011952Y-104719428D01*
X148916714Y-104671809D01*
X148011952Y-105052761D02*
X148107190Y-105100380D01*
X148297666Y-105100380D01*
X148392904Y-105052761D01*
X148440523Y-105005142D01*
X148488142Y-104909904D01*
X148488142Y-104624190D01*
X148440523Y-104528952D01*
X148392904Y-104481333D01*
X148297666Y-104433714D01*
X148107190Y-104433714D01*
X148011952Y-104481333D01*
X147583380Y-105100380D02*
X147583380Y-104433714D01*
X147583380Y-104100380D02*
X147631000Y-104148000D01*
X147583380Y-104195619D01*
X147535761Y-104148000D01*
X147583380Y-104100380D01*
X147583380Y-104195619D01*
X147107190Y-104433714D02*
X147107190Y-105100380D01*
X147107190Y-104528952D02*
X147059571Y-104481333D01*
X146964333Y-104433714D01*
X146821476Y-104433714D01*
X146726238Y-104481333D01*
X146678619Y-104576571D01*
X146678619Y-105100380D01*
X145773857Y-104433714D02*
X145773857Y-105243238D01*
X145821476Y-105338476D01*
X145869095Y-105386095D01*
X145964333Y-105433714D01*
X146107190Y-105433714D01*
X146202428Y-105386095D01*
X145773857Y-105052761D02*
X145869095Y-105100380D01*
X146059571Y-105100380D01*
X146154809Y-105052761D01*
X146202428Y-105005142D01*
X146250047Y-104909904D01*
X146250047Y-104624190D01*
X146202428Y-104528952D01*
X146154809Y-104481333D01*
X146059571Y-104433714D01*
X145869095Y-104433714D01*
X145773857Y-104481333D01*
X145392904Y-105481333D02*
X145345285Y-105433714D01*
X145250047Y-105290857D01*
X145202428Y-105195619D01*
X145154809Y-105052761D01*
X145107190Y-104814666D01*
X145107190Y-104624190D01*
X145154809Y-104386095D01*
X145202428Y-104243238D01*
X145250047Y-104148000D01*
X145345285Y-104005142D01*
X145392904Y-103957523D01*
D11*
%TO.C,J1*%
X173288000Y-108331000D02*
X173288000Y-110871000D01*
X170688000Y-108331000D02*
X173288000Y-108331000D01*
X170688000Y-108331000D02*
X170688000Y-105791000D01*
X170688000Y-105791000D02*
X129988000Y-105731000D01*
X173228000Y-110931000D02*
X129988000Y-110931000D01*
X129988000Y-110931000D02*
X129988000Y-105731000D01*
X173288000Y-105731000D02*
X171958000Y-105731000D01*
X173288000Y-107061000D02*
X173288000Y-105731000D01*
%TO.C,J2*%
X173288000Y-86741000D02*
X173288000Y-85411000D01*
X173288000Y-85411000D02*
X171958000Y-85411000D01*
X129988000Y-90611000D02*
X129988000Y-85411000D01*
X173228000Y-90611000D02*
X129988000Y-90611000D01*
X170688000Y-85471000D02*
X129988000Y-85411000D01*
X170688000Y-88011000D02*
X170688000Y-85471000D01*
X170688000Y-88011000D02*
X173288000Y-88011000D01*
X173288000Y-88011000D02*
X173288000Y-90551000D01*
%TD*%
M02*
