%TF.GenerationSoftware,KiCad,Pcbnew,(5.1.6)-1*%
%TF.CreationDate,2022-09-19T12:58:48-04:00*%
%TF.ProjectId,3dfx-sli-1slot,33646678-2d73-46c6-992d-31736c6f742e,rev?*%
%TF.SameCoordinates,Original*%
%TF.FileFunction,Copper,L2,Inr*%
%TF.FilePolarity,Positive*%
%FSLAX46Y46*%
G04 Gerber Fmt 4.6, Leading zero omitted, Abs format (unit mm)*
G04 Created by KiCad (PCBNEW (5.1.6)-1) date 2022-09-19 12:58:48*
%MOMM*%
%LPD*%
G01*
G04 APERTURE LIST*
%TA.AperFunction,ViaPad*%
%ADD10C,1.700000*%
%TD*%
%TA.AperFunction,ViaPad*%
%ADD11R,1.700000X1.700000*%
%TD*%
%TA.AperFunction,ViaPad*%
%ADD12O,1.700000X1.700000*%
%TD*%
%TA.AperFunction,Conductor*%
%ADD13C,0.250000*%
%TD*%
%TA.AperFunction,Conductor*%
%ADD14C,0.254000*%
%TD*%
G04 APERTURE END LIST*
D10*
%TO.N,2*%
%TO.C,J1*%
X171958000Y-109601000D03*
D11*
%TO.N,GND*%
X171958000Y-107061000D03*
D12*
%TO.N,4*%
X169418000Y-109601000D03*
%TO.N,3*%
X169418000Y-107061000D03*
%TO.N,GND*%
X166878000Y-109601000D03*
%TO.N,5*%
X166878000Y-107061000D03*
%TO.N,8*%
X164338000Y-109601000D03*
%TO.N,GND*%
X164338000Y-107061000D03*
%TO.N,10*%
X161798000Y-109601000D03*
%TO.N,9*%
X161798000Y-107061000D03*
%TO.N,GND*%
X159258000Y-109601000D03*
%TO.N,11*%
X159258000Y-107061000D03*
%TO.N,14*%
X156718000Y-109601000D03*
%TO.N,GND*%
X156718000Y-107061000D03*
X154178000Y-109601000D03*
%TO.N,15*%
X154178000Y-107061000D03*
%TO.N,18*%
X151638000Y-109601000D03*
%TO.N,17*%
X151638000Y-107061000D03*
%TO.N,20*%
X149098000Y-109601000D03*
%TO.N,GND*%
X149098000Y-107061000D03*
X146558000Y-109601000D03*
%TO.N,21*%
X146558000Y-107061000D03*
%TO.N,24*%
X144018000Y-109601000D03*
%TO.N,23*%
X144018000Y-107061000D03*
%TO.N,GND*%
X141478000Y-109601000D03*
%TO.N,25*%
X141478000Y-107061000D03*
%TO.N,28*%
X138938000Y-109601000D03*
%TO.N,GND*%
X138938000Y-107061000D03*
%TO.N,30*%
X136398000Y-109601000D03*
%TO.N,29*%
X136398000Y-107061000D03*
%TO.N,GND*%
X133858000Y-109601000D03*
%TO.N,31*%
X133858000Y-107061000D03*
%TO.N,34*%
X131318000Y-109601000D03*
%TO.N,33*%
X131318000Y-107061000D03*
%TD*%
%TO.N,33*%
%TO.C,J2*%
X131318000Y-86741000D03*
%TO.N,34*%
X131318000Y-89281000D03*
%TO.N,31*%
X133858000Y-86741000D03*
%TO.N,GND*%
X133858000Y-89281000D03*
%TO.N,29*%
X136398000Y-86741000D03*
%TO.N,30*%
X136398000Y-89281000D03*
%TO.N,GND*%
X138938000Y-86741000D03*
%TO.N,28*%
X138938000Y-89281000D03*
%TO.N,25*%
X141478000Y-86741000D03*
%TO.N,GND*%
X141478000Y-89281000D03*
%TO.N,23*%
X144018000Y-86741000D03*
%TO.N,24*%
X144018000Y-89281000D03*
%TO.N,21*%
X146558000Y-86741000D03*
%TO.N,GND*%
X146558000Y-89281000D03*
X149098000Y-86741000D03*
%TO.N,20*%
X149098000Y-89281000D03*
%TO.N,18*%
X151638000Y-86741000D03*
%TO.N,17*%
X151638000Y-89281000D03*
%TO.N,15*%
X154178000Y-86741000D03*
%TO.N,GND*%
X154178000Y-89281000D03*
X156718000Y-86741000D03*
%TO.N,14*%
X156718000Y-89281000D03*
%TO.N,11*%
X159258000Y-86741000D03*
%TO.N,GND*%
X159258000Y-89281000D03*
%TO.N,9*%
X161798000Y-86741000D03*
%TO.N,10*%
X161798000Y-89281000D03*
%TO.N,GND*%
X164338000Y-86741000D03*
%TO.N,8*%
X164338000Y-89281000D03*
%TO.N,5*%
X166878000Y-86741000D03*
%TO.N,GND*%
X166878000Y-89281000D03*
%TO.N,3*%
X169418000Y-86741000D03*
%TO.N,4*%
X169418000Y-89281000D03*
D11*
%TO.N,GND*%
X171958000Y-86741000D03*
D10*
%TO.N,2*%
X171958000Y-89281000D03*
%TD*%
D13*
%TO.N,2*%
X171958000Y-89281000D02*
X173228000Y-90551000D01*
X173228000Y-108331000D02*
X171958000Y-109601000D01*
X173228000Y-90551000D02*
X173228000Y-108331000D01*
%TO.N,4*%
X170688000Y-108331000D02*
X169418000Y-109601000D01*
X169418000Y-89281000D02*
X170688000Y-90551000D01*
X170688000Y-90551000D02*
X170688000Y-108331000D01*
%TO.N,8*%
X164338000Y-109601000D02*
X165608000Y-108331000D01*
X165608000Y-90551000D02*
X164338000Y-89281000D01*
X165608000Y-108331000D02*
X165608000Y-90551000D01*
%TO.N,10*%
X161798000Y-109601000D02*
X163068000Y-108331000D01*
X163068000Y-90551000D02*
X161798000Y-89281000D01*
X163068000Y-108331000D02*
X163068000Y-90551000D01*
%TO.N,14*%
X156718000Y-109601000D02*
X157988000Y-108331000D01*
X157988000Y-90551000D02*
X156718000Y-89281000D01*
X157988000Y-108331000D02*
X157988000Y-90551000D01*
%TO.N,18*%
X151638000Y-109601000D02*
X152908000Y-108331000D01*
X152908000Y-88011000D02*
X151638000Y-86741000D01*
X152908000Y-108331000D02*
X152908000Y-88011000D01*
%TO.N,20*%
X149098000Y-109601000D02*
X150368000Y-108331000D01*
X150368000Y-90551000D02*
X149098000Y-89281000D01*
X150368000Y-108331000D02*
X150368000Y-90551000D01*
%TO.N,24*%
X144018000Y-109601000D02*
X145288000Y-108331000D01*
X145288000Y-90551000D02*
X144018000Y-89281000D01*
X145288000Y-108331000D02*
X145288000Y-90551000D01*
%TO.N,28*%
X138938000Y-109601000D02*
X140208000Y-108331000D01*
X140208000Y-90551000D02*
X138938000Y-89281000D01*
X140208000Y-108331000D02*
X140208000Y-90551000D01*
%TO.N,30*%
X136398000Y-109601000D02*
X137668000Y-108331000D01*
X137668000Y-90551000D02*
X136398000Y-89281000D01*
X137668000Y-108331000D02*
X137668000Y-90551000D01*
%TO.N,34*%
X131318000Y-109601000D02*
X132588000Y-108331000D01*
X132588000Y-90551000D02*
X131318000Y-89281000D01*
X132588000Y-108331000D02*
X132588000Y-90551000D01*
%TD*%
D14*
%TO.N,GND*%
G36*
X173284000Y-89826355D02*
G01*
X173164019Y-89706374D01*
X173185926Y-89653487D01*
X173235000Y-89406774D01*
X173235000Y-89155226D01*
X173185926Y-88908513D01*
X173089663Y-88676114D01*
X172949911Y-88466960D01*
X172772040Y-88289089D01*
X172562886Y-88149337D01*
X172330487Y-88053074D01*
X172085002Y-88004244D01*
X172085002Y-87911252D01*
X172191750Y-88018000D01*
X172808000Y-88020066D01*
X172891707Y-88011822D01*
X172972196Y-87987405D01*
X173046376Y-87947755D01*
X173111395Y-87894395D01*
X173164755Y-87829376D01*
X173204405Y-87755196D01*
X173228822Y-87674707D01*
X173237066Y-87591000D01*
X173235000Y-86974750D01*
X173128250Y-86868000D01*
X172085000Y-86868000D01*
X172085000Y-86888000D01*
X171831000Y-86888000D01*
X171831000Y-86868000D01*
X171811000Y-86868000D01*
X171811000Y-86614000D01*
X171831000Y-86614000D01*
X171831000Y-85570750D01*
X172085000Y-85570750D01*
X172085000Y-86614000D01*
X173128250Y-86614000D01*
X173235000Y-86507250D01*
X173237066Y-85891000D01*
X173228822Y-85807293D01*
X173204405Y-85726804D01*
X173164755Y-85652624D01*
X173111395Y-85587605D01*
X173046376Y-85534245D01*
X172972196Y-85494595D01*
X172891707Y-85470178D01*
X172808000Y-85461934D01*
X172191750Y-85464000D01*
X172085000Y-85570750D01*
X171831000Y-85570750D01*
X171724250Y-85464000D01*
X171108000Y-85461934D01*
X171024293Y-85470178D01*
X170943804Y-85494595D01*
X170869624Y-85534245D01*
X170804605Y-85587605D01*
X170751245Y-85652624D01*
X170711595Y-85726804D01*
X170687178Y-85807293D01*
X170678934Y-85891000D01*
X170681000Y-86507250D01*
X170787748Y-86613998D01*
X170694756Y-86613998D01*
X170645926Y-86368513D01*
X170549663Y-86136114D01*
X170409911Y-85926960D01*
X170232040Y-85749089D01*
X170022886Y-85609337D01*
X169790487Y-85513074D01*
X169543774Y-85464000D01*
X169292226Y-85464000D01*
X169045513Y-85513074D01*
X168813114Y-85609337D01*
X168603960Y-85749089D01*
X168426089Y-85926960D01*
X168286337Y-86136114D01*
X168190074Y-86368513D01*
X168148000Y-86580034D01*
X168105926Y-86368513D01*
X168009663Y-86136114D01*
X167869911Y-85926960D01*
X167692040Y-85749089D01*
X167482886Y-85609337D01*
X167250487Y-85513074D01*
X167003774Y-85464000D01*
X166752226Y-85464000D01*
X166505513Y-85513074D01*
X166273114Y-85609337D01*
X166063960Y-85749089D01*
X165886089Y-85926960D01*
X165746337Y-86136114D01*
X165650074Y-86368513D01*
X165601244Y-86613998D01*
X165501926Y-86613998D01*
X165573164Y-86416786D01*
X165486180Y-86182047D01*
X165355072Y-85968788D01*
X165184878Y-85785205D01*
X164982139Y-85638353D01*
X164754646Y-85533875D01*
X164662213Y-85505842D01*
X164465000Y-85577662D01*
X164465000Y-86614000D01*
X164485000Y-86614000D01*
X164485000Y-86868000D01*
X164465000Y-86868000D01*
X164465000Y-86888000D01*
X164211000Y-86888000D01*
X164211000Y-86868000D01*
X164191000Y-86868000D01*
X164191000Y-86614000D01*
X164211000Y-86614000D01*
X164211000Y-85577662D01*
X164013787Y-85505842D01*
X163921354Y-85533875D01*
X163693861Y-85638353D01*
X163491122Y-85785205D01*
X163320928Y-85968788D01*
X163189820Y-86182047D01*
X163102836Y-86416786D01*
X163174074Y-86613998D01*
X163074756Y-86613998D01*
X163025926Y-86368513D01*
X162929663Y-86136114D01*
X162789911Y-85926960D01*
X162612040Y-85749089D01*
X162402886Y-85609337D01*
X162170487Y-85513074D01*
X161923774Y-85464000D01*
X161672226Y-85464000D01*
X161425513Y-85513074D01*
X161193114Y-85609337D01*
X160983960Y-85749089D01*
X160806089Y-85926960D01*
X160666337Y-86136114D01*
X160570074Y-86368513D01*
X160528000Y-86580034D01*
X160485926Y-86368513D01*
X160389663Y-86136114D01*
X160249911Y-85926960D01*
X160072040Y-85749089D01*
X159862886Y-85609337D01*
X159630487Y-85513074D01*
X159383774Y-85464000D01*
X159132226Y-85464000D01*
X158885513Y-85513074D01*
X158653114Y-85609337D01*
X158443960Y-85749089D01*
X158266089Y-85926960D01*
X158126337Y-86136114D01*
X158030074Y-86368513D01*
X157981244Y-86613998D01*
X157881926Y-86613998D01*
X157953164Y-86416786D01*
X157866180Y-86182047D01*
X157735072Y-85968788D01*
X157564878Y-85785205D01*
X157362139Y-85638353D01*
X157134646Y-85533875D01*
X157042213Y-85505842D01*
X156845000Y-85577662D01*
X156845000Y-86614000D01*
X156865000Y-86614000D01*
X156865000Y-86868000D01*
X156845000Y-86868000D01*
X156845000Y-86888000D01*
X156591000Y-86888000D01*
X156591000Y-86868000D01*
X156571000Y-86868000D01*
X156571000Y-86614000D01*
X156591000Y-86614000D01*
X156591000Y-85577662D01*
X156393787Y-85505842D01*
X156301354Y-85533875D01*
X156073861Y-85638353D01*
X155871122Y-85785205D01*
X155700928Y-85968788D01*
X155569820Y-86182047D01*
X155482836Y-86416786D01*
X155554074Y-86613998D01*
X155454756Y-86613998D01*
X155405926Y-86368513D01*
X155309663Y-86136114D01*
X155169911Y-85926960D01*
X154992040Y-85749089D01*
X154782886Y-85609337D01*
X154550487Y-85513074D01*
X154303774Y-85464000D01*
X154052226Y-85464000D01*
X153805513Y-85513074D01*
X153573114Y-85609337D01*
X153363960Y-85749089D01*
X153186089Y-85926960D01*
X153046337Y-86136114D01*
X152950074Y-86368513D01*
X152908000Y-86580034D01*
X152865926Y-86368513D01*
X152769663Y-86136114D01*
X152629911Y-85926960D01*
X152452040Y-85749089D01*
X152242886Y-85609337D01*
X152010487Y-85513074D01*
X151763774Y-85464000D01*
X151512226Y-85464000D01*
X151265513Y-85513074D01*
X151033114Y-85609337D01*
X150823960Y-85749089D01*
X150646089Y-85926960D01*
X150506337Y-86136114D01*
X150410074Y-86368513D01*
X150361244Y-86613998D01*
X150261926Y-86613998D01*
X150333164Y-86416786D01*
X150246180Y-86182047D01*
X150115072Y-85968788D01*
X149944878Y-85785205D01*
X149742139Y-85638353D01*
X149514646Y-85533875D01*
X149422213Y-85505842D01*
X149225000Y-85577662D01*
X149225000Y-86614000D01*
X149245000Y-86614000D01*
X149245000Y-86868000D01*
X149225000Y-86868000D01*
X149225000Y-86888000D01*
X148971000Y-86888000D01*
X148971000Y-86868000D01*
X148951000Y-86868000D01*
X148951000Y-86614000D01*
X148971000Y-86614000D01*
X148971000Y-85577662D01*
X148773787Y-85505842D01*
X148681354Y-85533875D01*
X148453861Y-85638353D01*
X148251122Y-85785205D01*
X148080928Y-85968788D01*
X147949820Y-86182047D01*
X147862836Y-86416786D01*
X147934074Y-86613998D01*
X147834756Y-86613998D01*
X147785926Y-86368513D01*
X147689663Y-86136114D01*
X147549911Y-85926960D01*
X147372040Y-85749089D01*
X147162886Y-85609337D01*
X146930487Y-85513074D01*
X146683774Y-85464000D01*
X146432226Y-85464000D01*
X146185513Y-85513074D01*
X145953114Y-85609337D01*
X145743960Y-85749089D01*
X145566089Y-85926960D01*
X145426337Y-86136114D01*
X145330074Y-86368513D01*
X145288000Y-86580034D01*
X145245926Y-86368513D01*
X145149663Y-86136114D01*
X145009911Y-85926960D01*
X144832040Y-85749089D01*
X144622886Y-85609337D01*
X144390487Y-85513074D01*
X144143774Y-85464000D01*
X143892226Y-85464000D01*
X143645513Y-85513074D01*
X143413114Y-85609337D01*
X143203960Y-85749089D01*
X143026089Y-85926960D01*
X142886337Y-86136114D01*
X142790074Y-86368513D01*
X142748000Y-86580034D01*
X142705926Y-86368513D01*
X142609663Y-86136114D01*
X142469911Y-85926960D01*
X142292040Y-85749089D01*
X142082886Y-85609337D01*
X141850487Y-85513074D01*
X141603774Y-85464000D01*
X141352226Y-85464000D01*
X141105513Y-85513074D01*
X140873114Y-85609337D01*
X140663960Y-85749089D01*
X140486089Y-85926960D01*
X140346337Y-86136114D01*
X140250074Y-86368513D01*
X140201244Y-86613998D01*
X140101926Y-86613998D01*
X140173164Y-86416786D01*
X140086180Y-86182047D01*
X139955072Y-85968788D01*
X139784878Y-85785205D01*
X139582139Y-85638353D01*
X139354646Y-85533875D01*
X139262213Y-85505842D01*
X139065000Y-85577662D01*
X139065000Y-86614000D01*
X139085000Y-86614000D01*
X139085000Y-86868000D01*
X139065000Y-86868000D01*
X139065000Y-86888000D01*
X138811000Y-86888000D01*
X138811000Y-86868000D01*
X138791000Y-86868000D01*
X138791000Y-86614000D01*
X138811000Y-86614000D01*
X138811000Y-85577662D01*
X138613787Y-85505842D01*
X138521354Y-85533875D01*
X138293861Y-85638353D01*
X138091122Y-85785205D01*
X137920928Y-85968788D01*
X137789820Y-86182047D01*
X137702836Y-86416786D01*
X137774074Y-86613998D01*
X137674756Y-86613998D01*
X137625926Y-86368513D01*
X137529663Y-86136114D01*
X137389911Y-85926960D01*
X137212040Y-85749089D01*
X137002886Y-85609337D01*
X136770487Y-85513074D01*
X136523774Y-85464000D01*
X136272226Y-85464000D01*
X136025513Y-85513074D01*
X135793114Y-85609337D01*
X135583960Y-85749089D01*
X135406089Y-85926960D01*
X135266337Y-86136114D01*
X135170074Y-86368513D01*
X135128000Y-86580034D01*
X135085926Y-86368513D01*
X134989663Y-86136114D01*
X134849911Y-85926960D01*
X134672040Y-85749089D01*
X134462886Y-85609337D01*
X134230487Y-85513074D01*
X133983774Y-85464000D01*
X133732226Y-85464000D01*
X133485513Y-85513074D01*
X133253114Y-85609337D01*
X133043960Y-85749089D01*
X132866089Y-85926960D01*
X132726337Y-86136114D01*
X132630074Y-86368513D01*
X132588000Y-86580034D01*
X132545926Y-86368513D01*
X132449663Y-86136114D01*
X132309911Y-85926960D01*
X132132040Y-85749089D01*
X131922886Y-85609337D01*
X131690487Y-85513074D01*
X131443774Y-85464000D01*
X131192226Y-85464000D01*
X130945513Y-85513074D01*
X130713114Y-85609337D01*
X130503960Y-85749089D01*
X130326089Y-85926960D01*
X130186337Y-86136114D01*
X130090074Y-86368513D01*
X130041000Y-86615226D01*
X130041000Y-86866774D01*
X130090074Y-87113487D01*
X130186337Y-87345886D01*
X130326089Y-87555040D01*
X130503960Y-87732911D01*
X130713114Y-87872663D01*
X130945513Y-87968926D01*
X131157034Y-88011000D01*
X130945513Y-88053074D01*
X130713114Y-88149337D01*
X130503960Y-88289089D01*
X130326089Y-88466960D01*
X130186337Y-88676114D01*
X130090074Y-88908513D01*
X130041000Y-89155226D01*
X130041000Y-89406774D01*
X130090074Y-89653487D01*
X130186337Y-89885886D01*
X130326089Y-90095040D01*
X130503960Y-90272911D01*
X130713114Y-90412663D01*
X130945513Y-90508926D01*
X131192226Y-90558000D01*
X131443774Y-90558000D01*
X131690487Y-90508926D01*
X131743374Y-90487019D01*
X132036001Y-90779647D01*
X132036000Y-106004917D01*
X131922886Y-105929337D01*
X131690487Y-105833074D01*
X131443774Y-105784000D01*
X131192226Y-105784000D01*
X130945513Y-105833074D01*
X130713114Y-105929337D01*
X130503960Y-106069089D01*
X130326089Y-106246960D01*
X130186337Y-106456114D01*
X130090074Y-106688513D01*
X130041000Y-106935226D01*
X130041000Y-107186774D01*
X130090074Y-107433487D01*
X130186337Y-107665886D01*
X130326089Y-107875040D01*
X130503960Y-108052911D01*
X130713114Y-108192663D01*
X130945513Y-108288926D01*
X131157034Y-108331000D01*
X130945513Y-108373074D01*
X130713114Y-108469337D01*
X130503960Y-108609089D01*
X130326089Y-108786960D01*
X130186337Y-108996114D01*
X130090074Y-109228513D01*
X130041000Y-109475226D01*
X130041000Y-109726774D01*
X130090074Y-109973487D01*
X130186337Y-110205886D01*
X130326089Y-110415040D01*
X130503960Y-110592911D01*
X130713114Y-110732663D01*
X130945513Y-110828926D01*
X131192226Y-110878000D01*
X131443774Y-110878000D01*
X131690487Y-110828926D01*
X131922886Y-110732663D01*
X132132040Y-110592911D01*
X132309911Y-110415040D01*
X132449663Y-110205886D01*
X132545926Y-109973487D01*
X132594756Y-109728002D01*
X132694074Y-109728002D01*
X132622836Y-109925214D01*
X132709820Y-110159953D01*
X132840928Y-110373212D01*
X133011122Y-110556795D01*
X133213861Y-110703647D01*
X133441354Y-110808125D01*
X133533787Y-110836158D01*
X133731000Y-110764338D01*
X133731000Y-109728000D01*
X133711000Y-109728000D01*
X133711000Y-109474000D01*
X133731000Y-109474000D01*
X133731000Y-109454000D01*
X133985000Y-109454000D01*
X133985000Y-109474000D01*
X134005000Y-109474000D01*
X134005000Y-109728000D01*
X133985000Y-109728000D01*
X133985000Y-110764338D01*
X134182213Y-110836158D01*
X134274646Y-110808125D01*
X134502139Y-110703647D01*
X134704878Y-110556795D01*
X134875072Y-110373212D01*
X135006180Y-110159953D01*
X135093164Y-109925214D01*
X135021926Y-109728002D01*
X135121244Y-109728002D01*
X135170074Y-109973487D01*
X135266337Y-110205886D01*
X135406089Y-110415040D01*
X135583960Y-110592911D01*
X135793114Y-110732663D01*
X136025513Y-110828926D01*
X136272226Y-110878000D01*
X136523774Y-110878000D01*
X136770487Y-110828926D01*
X137002886Y-110732663D01*
X137212040Y-110592911D01*
X137389911Y-110415040D01*
X137529663Y-110205886D01*
X137625926Y-109973487D01*
X137668000Y-109761966D01*
X137710074Y-109973487D01*
X137806337Y-110205886D01*
X137946089Y-110415040D01*
X138123960Y-110592911D01*
X138333114Y-110732663D01*
X138565513Y-110828926D01*
X138812226Y-110878000D01*
X139063774Y-110878000D01*
X139310487Y-110828926D01*
X139542886Y-110732663D01*
X139752040Y-110592911D01*
X139929911Y-110415040D01*
X140069663Y-110205886D01*
X140165926Y-109973487D01*
X140214756Y-109728002D01*
X140314074Y-109728002D01*
X140242836Y-109925214D01*
X140329820Y-110159953D01*
X140460928Y-110373212D01*
X140631122Y-110556795D01*
X140833861Y-110703647D01*
X141061354Y-110808125D01*
X141153787Y-110836158D01*
X141351000Y-110764338D01*
X141351000Y-109728000D01*
X141331000Y-109728000D01*
X141331000Y-109474000D01*
X141351000Y-109474000D01*
X141351000Y-109454000D01*
X141605000Y-109454000D01*
X141605000Y-109474000D01*
X141625000Y-109474000D01*
X141625000Y-109728000D01*
X141605000Y-109728000D01*
X141605000Y-110764338D01*
X141802213Y-110836158D01*
X141894646Y-110808125D01*
X142122139Y-110703647D01*
X142324878Y-110556795D01*
X142495072Y-110373212D01*
X142626180Y-110159953D01*
X142713164Y-109925214D01*
X142641926Y-109728002D01*
X142741244Y-109728002D01*
X142790074Y-109973487D01*
X142886337Y-110205886D01*
X143026089Y-110415040D01*
X143203960Y-110592911D01*
X143413114Y-110732663D01*
X143645513Y-110828926D01*
X143892226Y-110878000D01*
X144143774Y-110878000D01*
X144390487Y-110828926D01*
X144622886Y-110732663D01*
X144832040Y-110592911D01*
X145009911Y-110415040D01*
X145149663Y-110205886D01*
X145245926Y-109973487D01*
X145294756Y-109728002D01*
X145394074Y-109728002D01*
X145322836Y-109925214D01*
X145409820Y-110159953D01*
X145540928Y-110373212D01*
X145711122Y-110556795D01*
X145913861Y-110703647D01*
X146141354Y-110808125D01*
X146233787Y-110836158D01*
X146431000Y-110764338D01*
X146431000Y-109728000D01*
X146411000Y-109728000D01*
X146411000Y-109474000D01*
X146431000Y-109474000D01*
X146431000Y-109454000D01*
X146685000Y-109454000D01*
X146685000Y-109474000D01*
X146705000Y-109474000D01*
X146705000Y-109728000D01*
X146685000Y-109728000D01*
X146685000Y-110764338D01*
X146882213Y-110836158D01*
X146974646Y-110808125D01*
X147202139Y-110703647D01*
X147404878Y-110556795D01*
X147575072Y-110373212D01*
X147706180Y-110159953D01*
X147793164Y-109925214D01*
X147721926Y-109728002D01*
X147821244Y-109728002D01*
X147870074Y-109973487D01*
X147966337Y-110205886D01*
X148106089Y-110415040D01*
X148283960Y-110592911D01*
X148493114Y-110732663D01*
X148725513Y-110828926D01*
X148972226Y-110878000D01*
X149223774Y-110878000D01*
X149470487Y-110828926D01*
X149702886Y-110732663D01*
X149912040Y-110592911D01*
X150089911Y-110415040D01*
X150229663Y-110205886D01*
X150325926Y-109973487D01*
X150368000Y-109761966D01*
X150410074Y-109973487D01*
X150506337Y-110205886D01*
X150646089Y-110415040D01*
X150823960Y-110592911D01*
X151033114Y-110732663D01*
X151265513Y-110828926D01*
X151512226Y-110878000D01*
X151763774Y-110878000D01*
X152010487Y-110828926D01*
X152242886Y-110732663D01*
X152452040Y-110592911D01*
X152629911Y-110415040D01*
X152769663Y-110205886D01*
X152865926Y-109973487D01*
X152914756Y-109728002D01*
X153014074Y-109728002D01*
X152942836Y-109925214D01*
X153029820Y-110159953D01*
X153160928Y-110373212D01*
X153331122Y-110556795D01*
X153533861Y-110703647D01*
X153761354Y-110808125D01*
X153853787Y-110836158D01*
X154051000Y-110764338D01*
X154051000Y-109728000D01*
X154031000Y-109728000D01*
X154031000Y-109474000D01*
X154051000Y-109474000D01*
X154051000Y-109454000D01*
X154305000Y-109454000D01*
X154305000Y-109474000D01*
X154325000Y-109474000D01*
X154325000Y-109728000D01*
X154305000Y-109728000D01*
X154305000Y-110764338D01*
X154502213Y-110836158D01*
X154594646Y-110808125D01*
X154822139Y-110703647D01*
X155024878Y-110556795D01*
X155195072Y-110373212D01*
X155326180Y-110159953D01*
X155413164Y-109925214D01*
X155341926Y-109728002D01*
X155441244Y-109728002D01*
X155490074Y-109973487D01*
X155586337Y-110205886D01*
X155726089Y-110415040D01*
X155903960Y-110592911D01*
X156113114Y-110732663D01*
X156345513Y-110828926D01*
X156592226Y-110878000D01*
X156843774Y-110878000D01*
X157090487Y-110828926D01*
X157322886Y-110732663D01*
X157532040Y-110592911D01*
X157709911Y-110415040D01*
X157849663Y-110205886D01*
X157945926Y-109973487D01*
X157994756Y-109728002D01*
X158094074Y-109728002D01*
X158022836Y-109925214D01*
X158109820Y-110159953D01*
X158240928Y-110373212D01*
X158411122Y-110556795D01*
X158613861Y-110703647D01*
X158841354Y-110808125D01*
X158933787Y-110836158D01*
X159131000Y-110764338D01*
X159131000Y-109728000D01*
X159111000Y-109728000D01*
X159111000Y-109474000D01*
X159131000Y-109474000D01*
X159131000Y-109454000D01*
X159385000Y-109454000D01*
X159385000Y-109474000D01*
X159405000Y-109474000D01*
X159405000Y-109728000D01*
X159385000Y-109728000D01*
X159385000Y-110764338D01*
X159582213Y-110836158D01*
X159674646Y-110808125D01*
X159902139Y-110703647D01*
X160104878Y-110556795D01*
X160275072Y-110373212D01*
X160406180Y-110159953D01*
X160493164Y-109925214D01*
X160421926Y-109728002D01*
X160521244Y-109728002D01*
X160570074Y-109973487D01*
X160666337Y-110205886D01*
X160806089Y-110415040D01*
X160983960Y-110592911D01*
X161193114Y-110732663D01*
X161425513Y-110828926D01*
X161672226Y-110878000D01*
X161923774Y-110878000D01*
X162170487Y-110828926D01*
X162402886Y-110732663D01*
X162612040Y-110592911D01*
X162789911Y-110415040D01*
X162929663Y-110205886D01*
X163025926Y-109973487D01*
X163068000Y-109761966D01*
X163110074Y-109973487D01*
X163206337Y-110205886D01*
X163346089Y-110415040D01*
X163523960Y-110592911D01*
X163733114Y-110732663D01*
X163965513Y-110828926D01*
X164212226Y-110878000D01*
X164463774Y-110878000D01*
X164710487Y-110828926D01*
X164942886Y-110732663D01*
X165152040Y-110592911D01*
X165329911Y-110415040D01*
X165469663Y-110205886D01*
X165565926Y-109973487D01*
X165614756Y-109728002D01*
X165714074Y-109728002D01*
X165642836Y-109925214D01*
X165729820Y-110159953D01*
X165860928Y-110373212D01*
X166031122Y-110556795D01*
X166233861Y-110703647D01*
X166461354Y-110808125D01*
X166553787Y-110836158D01*
X166751000Y-110764338D01*
X166751000Y-109728000D01*
X166731000Y-109728000D01*
X166731000Y-109474000D01*
X166751000Y-109474000D01*
X166751000Y-109454000D01*
X167005000Y-109454000D01*
X167005000Y-109474000D01*
X167025000Y-109474000D01*
X167025000Y-109728000D01*
X167005000Y-109728000D01*
X167005000Y-110764338D01*
X167202213Y-110836158D01*
X167294646Y-110808125D01*
X167522139Y-110703647D01*
X167724878Y-110556795D01*
X167895072Y-110373212D01*
X168026180Y-110159953D01*
X168113164Y-109925214D01*
X168041926Y-109728002D01*
X168141244Y-109728002D01*
X168190074Y-109973487D01*
X168286337Y-110205886D01*
X168426089Y-110415040D01*
X168603960Y-110592911D01*
X168813114Y-110732663D01*
X169045513Y-110828926D01*
X169292226Y-110878000D01*
X169543774Y-110878000D01*
X169790487Y-110828926D01*
X170022886Y-110732663D01*
X170232040Y-110592911D01*
X170409911Y-110415040D01*
X170549663Y-110205886D01*
X170645926Y-109973487D01*
X170688000Y-109761966D01*
X170730074Y-109973487D01*
X170826337Y-110205886D01*
X170966089Y-110415040D01*
X171143960Y-110592911D01*
X171353114Y-110732663D01*
X171585513Y-110828926D01*
X171832226Y-110878000D01*
X172083774Y-110878000D01*
X172330487Y-110828926D01*
X172562886Y-110732663D01*
X172772040Y-110592911D01*
X172949911Y-110415040D01*
X173089663Y-110205886D01*
X173185926Y-109973487D01*
X173235000Y-109726774D01*
X173235000Y-109475226D01*
X173185926Y-109228513D01*
X173164019Y-109175626D01*
X173284001Y-109055645D01*
X173284001Y-110927000D01*
X129992000Y-110927000D01*
X129992000Y-85415000D01*
X173284000Y-85415000D01*
X173284000Y-89826355D01*
G37*
X173284000Y-89826355D02*
X173164019Y-89706374D01*
X173185926Y-89653487D01*
X173235000Y-89406774D01*
X173235000Y-89155226D01*
X173185926Y-88908513D01*
X173089663Y-88676114D01*
X172949911Y-88466960D01*
X172772040Y-88289089D01*
X172562886Y-88149337D01*
X172330487Y-88053074D01*
X172085002Y-88004244D01*
X172085002Y-87911252D01*
X172191750Y-88018000D01*
X172808000Y-88020066D01*
X172891707Y-88011822D01*
X172972196Y-87987405D01*
X173046376Y-87947755D01*
X173111395Y-87894395D01*
X173164755Y-87829376D01*
X173204405Y-87755196D01*
X173228822Y-87674707D01*
X173237066Y-87591000D01*
X173235000Y-86974750D01*
X173128250Y-86868000D01*
X172085000Y-86868000D01*
X172085000Y-86888000D01*
X171831000Y-86888000D01*
X171831000Y-86868000D01*
X171811000Y-86868000D01*
X171811000Y-86614000D01*
X171831000Y-86614000D01*
X171831000Y-85570750D01*
X172085000Y-85570750D01*
X172085000Y-86614000D01*
X173128250Y-86614000D01*
X173235000Y-86507250D01*
X173237066Y-85891000D01*
X173228822Y-85807293D01*
X173204405Y-85726804D01*
X173164755Y-85652624D01*
X173111395Y-85587605D01*
X173046376Y-85534245D01*
X172972196Y-85494595D01*
X172891707Y-85470178D01*
X172808000Y-85461934D01*
X172191750Y-85464000D01*
X172085000Y-85570750D01*
X171831000Y-85570750D01*
X171724250Y-85464000D01*
X171108000Y-85461934D01*
X171024293Y-85470178D01*
X170943804Y-85494595D01*
X170869624Y-85534245D01*
X170804605Y-85587605D01*
X170751245Y-85652624D01*
X170711595Y-85726804D01*
X170687178Y-85807293D01*
X170678934Y-85891000D01*
X170681000Y-86507250D01*
X170787748Y-86613998D01*
X170694756Y-86613998D01*
X170645926Y-86368513D01*
X170549663Y-86136114D01*
X170409911Y-85926960D01*
X170232040Y-85749089D01*
X170022886Y-85609337D01*
X169790487Y-85513074D01*
X169543774Y-85464000D01*
X169292226Y-85464000D01*
X169045513Y-85513074D01*
X168813114Y-85609337D01*
X168603960Y-85749089D01*
X168426089Y-85926960D01*
X168286337Y-86136114D01*
X168190074Y-86368513D01*
X168148000Y-86580034D01*
X168105926Y-86368513D01*
X168009663Y-86136114D01*
X167869911Y-85926960D01*
X167692040Y-85749089D01*
X167482886Y-85609337D01*
X167250487Y-85513074D01*
X167003774Y-85464000D01*
X166752226Y-85464000D01*
X166505513Y-85513074D01*
X166273114Y-85609337D01*
X166063960Y-85749089D01*
X165886089Y-85926960D01*
X165746337Y-86136114D01*
X165650074Y-86368513D01*
X165601244Y-86613998D01*
X165501926Y-86613998D01*
X165573164Y-86416786D01*
X165486180Y-86182047D01*
X165355072Y-85968788D01*
X165184878Y-85785205D01*
X164982139Y-85638353D01*
X164754646Y-85533875D01*
X164662213Y-85505842D01*
X164465000Y-85577662D01*
X164465000Y-86614000D01*
X164485000Y-86614000D01*
X164485000Y-86868000D01*
X164465000Y-86868000D01*
X164465000Y-86888000D01*
X164211000Y-86888000D01*
X164211000Y-86868000D01*
X164191000Y-86868000D01*
X164191000Y-86614000D01*
X164211000Y-86614000D01*
X164211000Y-85577662D01*
X164013787Y-85505842D01*
X163921354Y-85533875D01*
X163693861Y-85638353D01*
X163491122Y-85785205D01*
X163320928Y-85968788D01*
X163189820Y-86182047D01*
X163102836Y-86416786D01*
X163174074Y-86613998D01*
X163074756Y-86613998D01*
X163025926Y-86368513D01*
X162929663Y-86136114D01*
X162789911Y-85926960D01*
X162612040Y-85749089D01*
X162402886Y-85609337D01*
X162170487Y-85513074D01*
X161923774Y-85464000D01*
X161672226Y-85464000D01*
X161425513Y-85513074D01*
X161193114Y-85609337D01*
X160983960Y-85749089D01*
X160806089Y-85926960D01*
X160666337Y-86136114D01*
X160570074Y-86368513D01*
X160528000Y-86580034D01*
X160485926Y-86368513D01*
X160389663Y-86136114D01*
X160249911Y-85926960D01*
X160072040Y-85749089D01*
X159862886Y-85609337D01*
X159630487Y-85513074D01*
X159383774Y-85464000D01*
X159132226Y-85464000D01*
X158885513Y-85513074D01*
X158653114Y-85609337D01*
X158443960Y-85749089D01*
X158266089Y-85926960D01*
X158126337Y-86136114D01*
X158030074Y-86368513D01*
X157981244Y-86613998D01*
X157881926Y-86613998D01*
X157953164Y-86416786D01*
X157866180Y-86182047D01*
X157735072Y-85968788D01*
X157564878Y-85785205D01*
X157362139Y-85638353D01*
X157134646Y-85533875D01*
X157042213Y-85505842D01*
X156845000Y-85577662D01*
X156845000Y-86614000D01*
X156865000Y-86614000D01*
X156865000Y-86868000D01*
X156845000Y-86868000D01*
X156845000Y-86888000D01*
X156591000Y-86888000D01*
X156591000Y-86868000D01*
X156571000Y-86868000D01*
X156571000Y-86614000D01*
X156591000Y-86614000D01*
X156591000Y-85577662D01*
X156393787Y-85505842D01*
X156301354Y-85533875D01*
X156073861Y-85638353D01*
X155871122Y-85785205D01*
X155700928Y-85968788D01*
X155569820Y-86182047D01*
X155482836Y-86416786D01*
X155554074Y-86613998D01*
X155454756Y-86613998D01*
X155405926Y-86368513D01*
X155309663Y-86136114D01*
X155169911Y-85926960D01*
X154992040Y-85749089D01*
X154782886Y-85609337D01*
X154550487Y-85513074D01*
X154303774Y-85464000D01*
X154052226Y-85464000D01*
X153805513Y-85513074D01*
X153573114Y-85609337D01*
X153363960Y-85749089D01*
X153186089Y-85926960D01*
X153046337Y-86136114D01*
X152950074Y-86368513D01*
X152908000Y-86580034D01*
X152865926Y-86368513D01*
X152769663Y-86136114D01*
X152629911Y-85926960D01*
X152452040Y-85749089D01*
X152242886Y-85609337D01*
X152010487Y-85513074D01*
X151763774Y-85464000D01*
X151512226Y-85464000D01*
X151265513Y-85513074D01*
X151033114Y-85609337D01*
X150823960Y-85749089D01*
X150646089Y-85926960D01*
X150506337Y-86136114D01*
X150410074Y-86368513D01*
X150361244Y-86613998D01*
X150261926Y-86613998D01*
X150333164Y-86416786D01*
X150246180Y-86182047D01*
X150115072Y-85968788D01*
X149944878Y-85785205D01*
X149742139Y-85638353D01*
X149514646Y-85533875D01*
X149422213Y-85505842D01*
X149225000Y-85577662D01*
X149225000Y-86614000D01*
X149245000Y-86614000D01*
X149245000Y-86868000D01*
X149225000Y-86868000D01*
X149225000Y-86888000D01*
X148971000Y-86888000D01*
X148971000Y-86868000D01*
X148951000Y-86868000D01*
X148951000Y-86614000D01*
X148971000Y-86614000D01*
X148971000Y-85577662D01*
X148773787Y-85505842D01*
X148681354Y-85533875D01*
X148453861Y-85638353D01*
X148251122Y-85785205D01*
X148080928Y-85968788D01*
X147949820Y-86182047D01*
X147862836Y-86416786D01*
X147934074Y-86613998D01*
X147834756Y-86613998D01*
X147785926Y-86368513D01*
X147689663Y-86136114D01*
X147549911Y-85926960D01*
X147372040Y-85749089D01*
X147162886Y-85609337D01*
X146930487Y-85513074D01*
X146683774Y-85464000D01*
X146432226Y-85464000D01*
X146185513Y-85513074D01*
X145953114Y-85609337D01*
X145743960Y-85749089D01*
X145566089Y-85926960D01*
X145426337Y-86136114D01*
X145330074Y-86368513D01*
X145288000Y-86580034D01*
X145245926Y-86368513D01*
X145149663Y-86136114D01*
X145009911Y-85926960D01*
X144832040Y-85749089D01*
X144622886Y-85609337D01*
X144390487Y-85513074D01*
X144143774Y-85464000D01*
X143892226Y-85464000D01*
X143645513Y-85513074D01*
X143413114Y-85609337D01*
X143203960Y-85749089D01*
X143026089Y-85926960D01*
X142886337Y-86136114D01*
X142790074Y-86368513D01*
X142748000Y-86580034D01*
X142705926Y-86368513D01*
X142609663Y-86136114D01*
X142469911Y-85926960D01*
X142292040Y-85749089D01*
X142082886Y-85609337D01*
X141850487Y-85513074D01*
X141603774Y-85464000D01*
X141352226Y-85464000D01*
X141105513Y-85513074D01*
X140873114Y-85609337D01*
X140663960Y-85749089D01*
X140486089Y-85926960D01*
X140346337Y-86136114D01*
X140250074Y-86368513D01*
X140201244Y-86613998D01*
X140101926Y-86613998D01*
X140173164Y-86416786D01*
X140086180Y-86182047D01*
X139955072Y-85968788D01*
X139784878Y-85785205D01*
X139582139Y-85638353D01*
X139354646Y-85533875D01*
X139262213Y-85505842D01*
X139065000Y-85577662D01*
X139065000Y-86614000D01*
X139085000Y-86614000D01*
X139085000Y-86868000D01*
X139065000Y-86868000D01*
X139065000Y-86888000D01*
X138811000Y-86888000D01*
X138811000Y-86868000D01*
X138791000Y-86868000D01*
X138791000Y-86614000D01*
X138811000Y-86614000D01*
X138811000Y-85577662D01*
X138613787Y-85505842D01*
X138521354Y-85533875D01*
X138293861Y-85638353D01*
X138091122Y-85785205D01*
X137920928Y-85968788D01*
X137789820Y-86182047D01*
X137702836Y-86416786D01*
X137774074Y-86613998D01*
X137674756Y-86613998D01*
X137625926Y-86368513D01*
X137529663Y-86136114D01*
X137389911Y-85926960D01*
X137212040Y-85749089D01*
X137002886Y-85609337D01*
X136770487Y-85513074D01*
X136523774Y-85464000D01*
X136272226Y-85464000D01*
X136025513Y-85513074D01*
X135793114Y-85609337D01*
X135583960Y-85749089D01*
X135406089Y-85926960D01*
X135266337Y-86136114D01*
X135170074Y-86368513D01*
X135128000Y-86580034D01*
X135085926Y-86368513D01*
X134989663Y-86136114D01*
X134849911Y-85926960D01*
X134672040Y-85749089D01*
X134462886Y-85609337D01*
X134230487Y-85513074D01*
X133983774Y-85464000D01*
X133732226Y-85464000D01*
X133485513Y-85513074D01*
X133253114Y-85609337D01*
X133043960Y-85749089D01*
X132866089Y-85926960D01*
X132726337Y-86136114D01*
X132630074Y-86368513D01*
X132588000Y-86580034D01*
X132545926Y-86368513D01*
X132449663Y-86136114D01*
X132309911Y-85926960D01*
X132132040Y-85749089D01*
X131922886Y-85609337D01*
X131690487Y-85513074D01*
X131443774Y-85464000D01*
X131192226Y-85464000D01*
X130945513Y-85513074D01*
X130713114Y-85609337D01*
X130503960Y-85749089D01*
X130326089Y-85926960D01*
X130186337Y-86136114D01*
X130090074Y-86368513D01*
X130041000Y-86615226D01*
X130041000Y-86866774D01*
X130090074Y-87113487D01*
X130186337Y-87345886D01*
X130326089Y-87555040D01*
X130503960Y-87732911D01*
X130713114Y-87872663D01*
X130945513Y-87968926D01*
X131157034Y-88011000D01*
X130945513Y-88053074D01*
X130713114Y-88149337D01*
X130503960Y-88289089D01*
X130326089Y-88466960D01*
X130186337Y-88676114D01*
X130090074Y-88908513D01*
X130041000Y-89155226D01*
X130041000Y-89406774D01*
X130090074Y-89653487D01*
X130186337Y-89885886D01*
X130326089Y-90095040D01*
X130503960Y-90272911D01*
X130713114Y-90412663D01*
X130945513Y-90508926D01*
X131192226Y-90558000D01*
X131443774Y-90558000D01*
X131690487Y-90508926D01*
X131743374Y-90487019D01*
X132036001Y-90779647D01*
X132036000Y-106004917D01*
X131922886Y-105929337D01*
X131690487Y-105833074D01*
X131443774Y-105784000D01*
X131192226Y-105784000D01*
X130945513Y-105833074D01*
X130713114Y-105929337D01*
X130503960Y-106069089D01*
X130326089Y-106246960D01*
X130186337Y-106456114D01*
X130090074Y-106688513D01*
X130041000Y-106935226D01*
X130041000Y-107186774D01*
X130090074Y-107433487D01*
X130186337Y-107665886D01*
X130326089Y-107875040D01*
X130503960Y-108052911D01*
X130713114Y-108192663D01*
X130945513Y-108288926D01*
X131157034Y-108331000D01*
X130945513Y-108373074D01*
X130713114Y-108469337D01*
X130503960Y-108609089D01*
X130326089Y-108786960D01*
X130186337Y-108996114D01*
X130090074Y-109228513D01*
X130041000Y-109475226D01*
X130041000Y-109726774D01*
X130090074Y-109973487D01*
X130186337Y-110205886D01*
X130326089Y-110415040D01*
X130503960Y-110592911D01*
X130713114Y-110732663D01*
X130945513Y-110828926D01*
X131192226Y-110878000D01*
X131443774Y-110878000D01*
X131690487Y-110828926D01*
X131922886Y-110732663D01*
X132132040Y-110592911D01*
X132309911Y-110415040D01*
X132449663Y-110205886D01*
X132545926Y-109973487D01*
X132594756Y-109728002D01*
X132694074Y-109728002D01*
X132622836Y-109925214D01*
X132709820Y-110159953D01*
X132840928Y-110373212D01*
X133011122Y-110556795D01*
X133213861Y-110703647D01*
X133441354Y-110808125D01*
X133533787Y-110836158D01*
X133731000Y-110764338D01*
X133731000Y-109728000D01*
X133711000Y-109728000D01*
X133711000Y-109474000D01*
X133731000Y-109474000D01*
X133731000Y-109454000D01*
X133985000Y-109454000D01*
X133985000Y-109474000D01*
X134005000Y-109474000D01*
X134005000Y-109728000D01*
X133985000Y-109728000D01*
X133985000Y-110764338D01*
X134182213Y-110836158D01*
X134274646Y-110808125D01*
X134502139Y-110703647D01*
X134704878Y-110556795D01*
X134875072Y-110373212D01*
X135006180Y-110159953D01*
X135093164Y-109925214D01*
X135021926Y-109728002D01*
X135121244Y-109728002D01*
X135170074Y-109973487D01*
X135266337Y-110205886D01*
X135406089Y-110415040D01*
X135583960Y-110592911D01*
X135793114Y-110732663D01*
X136025513Y-110828926D01*
X136272226Y-110878000D01*
X136523774Y-110878000D01*
X136770487Y-110828926D01*
X137002886Y-110732663D01*
X137212040Y-110592911D01*
X137389911Y-110415040D01*
X137529663Y-110205886D01*
X137625926Y-109973487D01*
X137668000Y-109761966D01*
X137710074Y-109973487D01*
X137806337Y-110205886D01*
X137946089Y-110415040D01*
X138123960Y-110592911D01*
X138333114Y-110732663D01*
X138565513Y-110828926D01*
X138812226Y-110878000D01*
X139063774Y-110878000D01*
X139310487Y-110828926D01*
X139542886Y-110732663D01*
X139752040Y-110592911D01*
X139929911Y-110415040D01*
X140069663Y-110205886D01*
X140165926Y-109973487D01*
X140214756Y-109728002D01*
X140314074Y-109728002D01*
X140242836Y-109925214D01*
X140329820Y-110159953D01*
X140460928Y-110373212D01*
X140631122Y-110556795D01*
X140833861Y-110703647D01*
X141061354Y-110808125D01*
X141153787Y-110836158D01*
X141351000Y-110764338D01*
X141351000Y-109728000D01*
X141331000Y-109728000D01*
X141331000Y-109474000D01*
X141351000Y-109474000D01*
X141351000Y-109454000D01*
X141605000Y-109454000D01*
X141605000Y-109474000D01*
X141625000Y-109474000D01*
X141625000Y-109728000D01*
X141605000Y-109728000D01*
X141605000Y-110764338D01*
X141802213Y-110836158D01*
X141894646Y-110808125D01*
X142122139Y-110703647D01*
X142324878Y-110556795D01*
X142495072Y-110373212D01*
X142626180Y-110159953D01*
X142713164Y-109925214D01*
X142641926Y-109728002D01*
X142741244Y-109728002D01*
X142790074Y-109973487D01*
X142886337Y-110205886D01*
X143026089Y-110415040D01*
X143203960Y-110592911D01*
X143413114Y-110732663D01*
X143645513Y-110828926D01*
X143892226Y-110878000D01*
X144143774Y-110878000D01*
X144390487Y-110828926D01*
X144622886Y-110732663D01*
X144832040Y-110592911D01*
X145009911Y-110415040D01*
X145149663Y-110205886D01*
X145245926Y-109973487D01*
X145294756Y-109728002D01*
X145394074Y-109728002D01*
X145322836Y-109925214D01*
X145409820Y-110159953D01*
X145540928Y-110373212D01*
X145711122Y-110556795D01*
X145913861Y-110703647D01*
X146141354Y-110808125D01*
X146233787Y-110836158D01*
X146431000Y-110764338D01*
X146431000Y-109728000D01*
X146411000Y-109728000D01*
X146411000Y-109474000D01*
X146431000Y-109474000D01*
X146431000Y-109454000D01*
X146685000Y-109454000D01*
X146685000Y-109474000D01*
X146705000Y-109474000D01*
X146705000Y-109728000D01*
X146685000Y-109728000D01*
X146685000Y-110764338D01*
X146882213Y-110836158D01*
X146974646Y-110808125D01*
X147202139Y-110703647D01*
X147404878Y-110556795D01*
X147575072Y-110373212D01*
X147706180Y-110159953D01*
X147793164Y-109925214D01*
X147721926Y-109728002D01*
X147821244Y-109728002D01*
X147870074Y-109973487D01*
X147966337Y-110205886D01*
X148106089Y-110415040D01*
X148283960Y-110592911D01*
X148493114Y-110732663D01*
X148725513Y-110828926D01*
X148972226Y-110878000D01*
X149223774Y-110878000D01*
X149470487Y-110828926D01*
X149702886Y-110732663D01*
X149912040Y-110592911D01*
X150089911Y-110415040D01*
X150229663Y-110205886D01*
X150325926Y-109973487D01*
X150368000Y-109761966D01*
X150410074Y-109973487D01*
X150506337Y-110205886D01*
X150646089Y-110415040D01*
X150823960Y-110592911D01*
X151033114Y-110732663D01*
X151265513Y-110828926D01*
X151512226Y-110878000D01*
X151763774Y-110878000D01*
X152010487Y-110828926D01*
X152242886Y-110732663D01*
X152452040Y-110592911D01*
X152629911Y-110415040D01*
X152769663Y-110205886D01*
X152865926Y-109973487D01*
X152914756Y-109728002D01*
X153014074Y-109728002D01*
X152942836Y-109925214D01*
X153029820Y-110159953D01*
X153160928Y-110373212D01*
X153331122Y-110556795D01*
X153533861Y-110703647D01*
X153761354Y-110808125D01*
X153853787Y-110836158D01*
X154051000Y-110764338D01*
X154051000Y-109728000D01*
X154031000Y-109728000D01*
X154031000Y-109474000D01*
X154051000Y-109474000D01*
X154051000Y-109454000D01*
X154305000Y-109454000D01*
X154305000Y-109474000D01*
X154325000Y-109474000D01*
X154325000Y-109728000D01*
X154305000Y-109728000D01*
X154305000Y-110764338D01*
X154502213Y-110836158D01*
X154594646Y-110808125D01*
X154822139Y-110703647D01*
X155024878Y-110556795D01*
X155195072Y-110373212D01*
X155326180Y-110159953D01*
X155413164Y-109925214D01*
X155341926Y-109728002D01*
X155441244Y-109728002D01*
X155490074Y-109973487D01*
X155586337Y-110205886D01*
X155726089Y-110415040D01*
X155903960Y-110592911D01*
X156113114Y-110732663D01*
X156345513Y-110828926D01*
X156592226Y-110878000D01*
X156843774Y-110878000D01*
X157090487Y-110828926D01*
X157322886Y-110732663D01*
X157532040Y-110592911D01*
X157709911Y-110415040D01*
X157849663Y-110205886D01*
X157945926Y-109973487D01*
X157994756Y-109728002D01*
X158094074Y-109728002D01*
X158022836Y-109925214D01*
X158109820Y-110159953D01*
X158240928Y-110373212D01*
X158411122Y-110556795D01*
X158613861Y-110703647D01*
X158841354Y-110808125D01*
X158933787Y-110836158D01*
X159131000Y-110764338D01*
X159131000Y-109728000D01*
X159111000Y-109728000D01*
X159111000Y-109474000D01*
X159131000Y-109474000D01*
X159131000Y-109454000D01*
X159385000Y-109454000D01*
X159385000Y-109474000D01*
X159405000Y-109474000D01*
X159405000Y-109728000D01*
X159385000Y-109728000D01*
X159385000Y-110764338D01*
X159582213Y-110836158D01*
X159674646Y-110808125D01*
X159902139Y-110703647D01*
X160104878Y-110556795D01*
X160275072Y-110373212D01*
X160406180Y-110159953D01*
X160493164Y-109925214D01*
X160421926Y-109728002D01*
X160521244Y-109728002D01*
X160570074Y-109973487D01*
X160666337Y-110205886D01*
X160806089Y-110415040D01*
X160983960Y-110592911D01*
X161193114Y-110732663D01*
X161425513Y-110828926D01*
X161672226Y-110878000D01*
X161923774Y-110878000D01*
X162170487Y-110828926D01*
X162402886Y-110732663D01*
X162612040Y-110592911D01*
X162789911Y-110415040D01*
X162929663Y-110205886D01*
X163025926Y-109973487D01*
X163068000Y-109761966D01*
X163110074Y-109973487D01*
X163206337Y-110205886D01*
X163346089Y-110415040D01*
X163523960Y-110592911D01*
X163733114Y-110732663D01*
X163965513Y-110828926D01*
X164212226Y-110878000D01*
X164463774Y-110878000D01*
X164710487Y-110828926D01*
X164942886Y-110732663D01*
X165152040Y-110592911D01*
X165329911Y-110415040D01*
X165469663Y-110205886D01*
X165565926Y-109973487D01*
X165614756Y-109728002D01*
X165714074Y-109728002D01*
X165642836Y-109925214D01*
X165729820Y-110159953D01*
X165860928Y-110373212D01*
X166031122Y-110556795D01*
X166233861Y-110703647D01*
X166461354Y-110808125D01*
X166553787Y-110836158D01*
X166751000Y-110764338D01*
X166751000Y-109728000D01*
X166731000Y-109728000D01*
X166731000Y-109474000D01*
X166751000Y-109474000D01*
X166751000Y-109454000D01*
X167005000Y-109454000D01*
X167005000Y-109474000D01*
X167025000Y-109474000D01*
X167025000Y-109728000D01*
X167005000Y-109728000D01*
X167005000Y-110764338D01*
X167202213Y-110836158D01*
X167294646Y-110808125D01*
X167522139Y-110703647D01*
X167724878Y-110556795D01*
X167895072Y-110373212D01*
X168026180Y-110159953D01*
X168113164Y-109925214D01*
X168041926Y-109728002D01*
X168141244Y-109728002D01*
X168190074Y-109973487D01*
X168286337Y-110205886D01*
X168426089Y-110415040D01*
X168603960Y-110592911D01*
X168813114Y-110732663D01*
X169045513Y-110828926D01*
X169292226Y-110878000D01*
X169543774Y-110878000D01*
X169790487Y-110828926D01*
X170022886Y-110732663D01*
X170232040Y-110592911D01*
X170409911Y-110415040D01*
X170549663Y-110205886D01*
X170645926Y-109973487D01*
X170688000Y-109761966D01*
X170730074Y-109973487D01*
X170826337Y-110205886D01*
X170966089Y-110415040D01*
X171143960Y-110592911D01*
X171353114Y-110732663D01*
X171585513Y-110828926D01*
X171832226Y-110878000D01*
X172083774Y-110878000D01*
X172330487Y-110828926D01*
X172562886Y-110732663D01*
X172772040Y-110592911D01*
X172949911Y-110415040D01*
X173089663Y-110205886D01*
X173185926Y-109973487D01*
X173235000Y-109726774D01*
X173235000Y-109475226D01*
X173185926Y-109228513D01*
X173164019Y-109175626D01*
X173284001Y-109055645D01*
X173284001Y-110927000D01*
X129992000Y-110927000D01*
X129992000Y-85415000D01*
X173284000Y-85415000D01*
X173284000Y-89826355D01*
G36*
X154305000Y-89154000D02*
G01*
X154325000Y-89154000D01*
X154325000Y-89408000D01*
X154305000Y-89408000D01*
X154305000Y-90444338D01*
X154502213Y-90516158D01*
X154594646Y-90488125D01*
X154822139Y-90383647D01*
X155024878Y-90236795D01*
X155195072Y-90053212D01*
X155326180Y-89839953D01*
X155413164Y-89605214D01*
X155341926Y-89408002D01*
X155441244Y-89408002D01*
X155490074Y-89653487D01*
X155586337Y-89885886D01*
X155726089Y-90095040D01*
X155903960Y-90272911D01*
X156113114Y-90412663D01*
X156345513Y-90508926D01*
X156592226Y-90558000D01*
X156843774Y-90558000D01*
X157090487Y-90508926D01*
X157143374Y-90487019D01*
X157436001Y-90779647D01*
X157436000Y-106011854D01*
X157362139Y-105958353D01*
X157134646Y-105853875D01*
X157042213Y-105825842D01*
X156845000Y-105897662D01*
X156845000Y-106934000D01*
X156865000Y-106934000D01*
X156865000Y-107188000D01*
X156845000Y-107188000D01*
X156845000Y-107208000D01*
X156591000Y-107208000D01*
X156591000Y-107188000D01*
X156571000Y-107188000D01*
X156571000Y-106934000D01*
X156591000Y-106934000D01*
X156591000Y-105897662D01*
X156393787Y-105825842D01*
X156301354Y-105853875D01*
X156073861Y-105958353D01*
X155871122Y-106105205D01*
X155700928Y-106288788D01*
X155569820Y-106502047D01*
X155482836Y-106736786D01*
X155554074Y-106933998D01*
X155454756Y-106933998D01*
X155405926Y-106688513D01*
X155309663Y-106456114D01*
X155169911Y-106246960D01*
X154992040Y-106069089D01*
X154782886Y-105929337D01*
X154550487Y-105833074D01*
X154303774Y-105784000D01*
X154052226Y-105784000D01*
X153805513Y-105833074D01*
X153573114Y-105929337D01*
X153460000Y-106004917D01*
X153460000Y-90330147D01*
X153533861Y-90383647D01*
X153761354Y-90488125D01*
X153853787Y-90516158D01*
X154051000Y-90444338D01*
X154051000Y-89408000D01*
X154031000Y-89408000D01*
X154031000Y-89154000D01*
X154051000Y-89154000D01*
X154051000Y-89134000D01*
X154305000Y-89134000D01*
X154305000Y-89154000D01*
G37*
X154305000Y-89154000D02*
X154325000Y-89154000D01*
X154325000Y-89408000D01*
X154305000Y-89408000D01*
X154305000Y-90444338D01*
X154502213Y-90516158D01*
X154594646Y-90488125D01*
X154822139Y-90383647D01*
X155024878Y-90236795D01*
X155195072Y-90053212D01*
X155326180Y-89839953D01*
X155413164Y-89605214D01*
X155341926Y-89408002D01*
X155441244Y-89408002D01*
X155490074Y-89653487D01*
X155586337Y-89885886D01*
X155726089Y-90095040D01*
X155903960Y-90272911D01*
X156113114Y-90412663D01*
X156345513Y-90508926D01*
X156592226Y-90558000D01*
X156843774Y-90558000D01*
X157090487Y-90508926D01*
X157143374Y-90487019D01*
X157436001Y-90779647D01*
X157436000Y-106011854D01*
X157362139Y-105958353D01*
X157134646Y-105853875D01*
X157042213Y-105825842D01*
X156845000Y-105897662D01*
X156845000Y-106934000D01*
X156865000Y-106934000D01*
X156865000Y-107188000D01*
X156845000Y-107188000D01*
X156845000Y-107208000D01*
X156591000Y-107208000D01*
X156591000Y-107188000D01*
X156571000Y-107188000D01*
X156571000Y-106934000D01*
X156591000Y-106934000D01*
X156591000Y-105897662D01*
X156393787Y-105825842D01*
X156301354Y-105853875D01*
X156073861Y-105958353D01*
X155871122Y-106105205D01*
X155700928Y-106288788D01*
X155569820Y-106502047D01*
X155482836Y-106736786D01*
X155554074Y-106933998D01*
X155454756Y-106933998D01*
X155405926Y-106688513D01*
X155309663Y-106456114D01*
X155169911Y-106246960D01*
X154992040Y-106069089D01*
X154782886Y-105929337D01*
X154550487Y-105833074D01*
X154303774Y-105784000D01*
X154052226Y-105784000D01*
X153805513Y-105833074D01*
X153573114Y-105929337D01*
X153460000Y-106004917D01*
X153460000Y-90330147D01*
X153533861Y-90383647D01*
X153761354Y-90488125D01*
X153853787Y-90516158D01*
X154051000Y-90444338D01*
X154051000Y-89408000D01*
X154031000Y-89408000D01*
X154031000Y-89154000D01*
X154051000Y-89154000D01*
X154051000Y-89134000D01*
X154305000Y-89134000D01*
X154305000Y-89154000D01*
G36*
X138333114Y-90412663D02*
G01*
X138565513Y-90508926D01*
X138812226Y-90558000D01*
X139063774Y-90558000D01*
X139310487Y-90508926D01*
X139363374Y-90487019D01*
X139656001Y-90779647D01*
X139656000Y-106011854D01*
X139582139Y-105958353D01*
X139354646Y-105853875D01*
X139262213Y-105825842D01*
X139065000Y-105897662D01*
X139065000Y-106934000D01*
X139085000Y-106934000D01*
X139085000Y-107188000D01*
X139065000Y-107188000D01*
X139065000Y-107208000D01*
X138811000Y-107208000D01*
X138811000Y-107188000D01*
X138791000Y-107188000D01*
X138791000Y-106934000D01*
X138811000Y-106934000D01*
X138811000Y-105897662D01*
X138613787Y-105825842D01*
X138521354Y-105853875D01*
X138293861Y-105958353D01*
X138220000Y-106011853D01*
X138220000Y-90578097D01*
X138222669Y-90550999D01*
X138220000Y-90523901D01*
X138220000Y-90523891D01*
X138212012Y-90442789D01*
X138180448Y-90338737D01*
X138157099Y-90295054D01*
X138333114Y-90412663D01*
G37*
X138333114Y-90412663D02*
X138565513Y-90508926D01*
X138812226Y-90558000D01*
X139063774Y-90558000D01*
X139310487Y-90508926D01*
X139363374Y-90487019D01*
X139656001Y-90779647D01*
X139656000Y-106011854D01*
X139582139Y-105958353D01*
X139354646Y-105853875D01*
X139262213Y-105825842D01*
X139065000Y-105897662D01*
X139065000Y-106934000D01*
X139085000Y-106934000D01*
X139085000Y-107188000D01*
X139065000Y-107188000D01*
X139065000Y-107208000D01*
X138811000Y-107208000D01*
X138811000Y-107188000D01*
X138791000Y-107188000D01*
X138791000Y-106934000D01*
X138811000Y-106934000D01*
X138811000Y-105897662D01*
X138613787Y-105825842D01*
X138521354Y-105853875D01*
X138293861Y-105958353D01*
X138220000Y-106011853D01*
X138220000Y-90578097D01*
X138222669Y-90550999D01*
X138220000Y-90523901D01*
X138220000Y-90523891D01*
X138212012Y-90442789D01*
X138180448Y-90338737D01*
X138157099Y-90295054D01*
X138333114Y-90412663D01*
G36*
X171353114Y-90412663D02*
G01*
X171585513Y-90508926D01*
X171832226Y-90558000D01*
X172083774Y-90558000D01*
X172330487Y-90508926D01*
X172383374Y-90487019D01*
X172676000Y-90779646D01*
X172676001Y-105782377D01*
X172191750Y-105784000D01*
X172085000Y-105890750D01*
X172085000Y-106934000D01*
X172105000Y-106934000D01*
X172105000Y-107188000D01*
X172085000Y-107188000D01*
X172085000Y-107208000D01*
X171831000Y-107208000D01*
X171831000Y-107188000D01*
X171811000Y-107188000D01*
X171811000Y-106934000D01*
X171831000Y-106934000D01*
X171831000Y-105890750D01*
X171724250Y-105784000D01*
X171240000Y-105782377D01*
X171240000Y-90578097D01*
X171242669Y-90550999D01*
X171240000Y-90523901D01*
X171240000Y-90523891D01*
X171232012Y-90442789D01*
X171200448Y-90338737D01*
X171177099Y-90295054D01*
X171353114Y-90412663D01*
G37*
X171353114Y-90412663D02*
X171585513Y-90508926D01*
X171832226Y-90558000D01*
X172083774Y-90558000D01*
X172330487Y-90508926D01*
X172383374Y-90487019D01*
X172676000Y-90779646D01*
X172676001Y-105782377D01*
X172191750Y-105784000D01*
X172085000Y-105890750D01*
X172085000Y-106934000D01*
X172105000Y-106934000D01*
X172105000Y-107188000D01*
X172085000Y-107188000D01*
X172085000Y-107208000D01*
X171831000Y-107208000D01*
X171831000Y-107188000D01*
X171811000Y-107188000D01*
X171811000Y-106934000D01*
X171831000Y-106934000D01*
X171831000Y-105890750D01*
X171724250Y-105784000D01*
X171240000Y-105782377D01*
X171240000Y-90578097D01*
X171242669Y-90550999D01*
X171240000Y-90523901D01*
X171240000Y-90523891D01*
X171232012Y-90442789D01*
X171200448Y-90338737D01*
X171177099Y-90295054D01*
X171353114Y-90412663D01*
G36*
X146685000Y-89154000D02*
G01*
X146705000Y-89154000D01*
X146705000Y-89408000D01*
X146685000Y-89408000D01*
X146685000Y-90444338D01*
X146882213Y-90516158D01*
X146974646Y-90488125D01*
X147202139Y-90383647D01*
X147404878Y-90236795D01*
X147575072Y-90053212D01*
X147706180Y-89839953D01*
X147793164Y-89605214D01*
X147721926Y-89408002D01*
X147821244Y-89408002D01*
X147870074Y-89653487D01*
X147966337Y-89885886D01*
X148106089Y-90095040D01*
X148283960Y-90272911D01*
X148493114Y-90412663D01*
X148725513Y-90508926D01*
X148972226Y-90558000D01*
X149223774Y-90558000D01*
X149470487Y-90508926D01*
X149523374Y-90487019D01*
X149816001Y-90779647D01*
X149816000Y-106011854D01*
X149742139Y-105958353D01*
X149514646Y-105853875D01*
X149422213Y-105825842D01*
X149225000Y-105897662D01*
X149225000Y-106934000D01*
X149245000Y-106934000D01*
X149245000Y-107188000D01*
X149225000Y-107188000D01*
X149225000Y-107208000D01*
X148971000Y-107208000D01*
X148971000Y-107188000D01*
X148951000Y-107188000D01*
X148951000Y-106934000D01*
X148971000Y-106934000D01*
X148971000Y-105897662D01*
X148773787Y-105825842D01*
X148681354Y-105853875D01*
X148453861Y-105958353D01*
X148251122Y-106105205D01*
X148080928Y-106288788D01*
X147949820Y-106502047D01*
X147862836Y-106736786D01*
X147934074Y-106933998D01*
X147834756Y-106933998D01*
X147785926Y-106688513D01*
X147689663Y-106456114D01*
X147549911Y-106246960D01*
X147372040Y-106069089D01*
X147162886Y-105929337D01*
X146930487Y-105833074D01*
X146683774Y-105784000D01*
X146432226Y-105784000D01*
X146185513Y-105833074D01*
X145953114Y-105929337D01*
X145840000Y-106004917D01*
X145840000Y-90578097D01*
X145842669Y-90550999D01*
X145840000Y-90523901D01*
X145840000Y-90523891D01*
X145832012Y-90442789D01*
X145800448Y-90338737D01*
X145767968Y-90277971D01*
X145913861Y-90383647D01*
X146141354Y-90488125D01*
X146233787Y-90516158D01*
X146431000Y-90444338D01*
X146431000Y-89408000D01*
X146411000Y-89408000D01*
X146411000Y-89154000D01*
X146431000Y-89154000D01*
X146431000Y-89134000D01*
X146685000Y-89134000D01*
X146685000Y-89154000D01*
G37*
X146685000Y-89154000D02*
X146705000Y-89154000D01*
X146705000Y-89408000D01*
X146685000Y-89408000D01*
X146685000Y-90444338D01*
X146882213Y-90516158D01*
X146974646Y-90488125D01*
X147202139Y-90383647D01*
X147404878Y-90236795D01*
X147575072Y-90053212D01*
X147706180Y-89839953D01*
X147793164Y-89605214D01*
X147721926Y-89408002D01*
X147821244Y-89408002D01*
X147870074Y-89653487D01*
X147966337Y-89885886D01*
X148106089Y-90095040D01*
X148283960Y-90272911D01*
X148493114Y-90412663D01*
X148725513Y-90508926D01*
X148972226Y-90558000D01*
X149223774Y-90558000D01*
X149470487Y-90508926D01*
X149523374Y-90487019D01*
X149816001Y-90779647D01*
X149816000Y-106011854D01*
X149742139Y-105958353D01*
X149514646Y-105853875D01*
X149422213Y-105825842D01*
X149225000Y-105897662D01*
X149225000Y-106934000D01*
X149245000Y-106934000D01*
X149245000Y-107188000D01*
X149225000Y-107188000D01*
X149225000Y-107208000D01*
X148971000Y-107208000D01*
X148971000Y-107188000D01*
X148951000Y-107188000D01*
X148951000Y-106934000D01*
X148971000Y-106934000D01*
X148971000Y-105897662D01*
X148773787Y-105825842D01*
X148681354Y-105853875D01*
X148453861Y-105958353D01*
X148251122Y-106105205D01*
X148080928Y-106288788D01*
X147949820Y-106502047D01*
X147862836Y-106736786D01*
X147934074Y-106933998D01*
X147834756Y-106933998D01*
X147785926Y-106688513D01*
X147689663Y-106456114D01*
X147549911Y-106246960D01*
X147372040Y-106069089D01*
X147162886Y-105929337D01*
X146930487Y-105833074D01*
X146683774Y-105784000D01*
X146432226Y-105784000D01*
X146185513Y-105833074D01*
X145953114Y-105929337D01*
X145840000Y-106004917D01*
X145840000Y-90578097D01*
X145842669Y-90550999D01*
X145840000Y-90523901D01*
X145840000Y-90523891D01*
X145832012Y-90442789D01*
X145800448Y-90338737D01*
X145767968Y-90277971D01*
X145913861Y-90383647D01*
X146141354Y-90488125D01*
X146233787Y-90516158D01*
X146431000Y-90444338D01*
X146431000Y-89408000D01*
X146411000Y-89408000D01*
X146411000Y-89154000D01*
X146431000Y-89154000D01*
X146431000Y-89134000D01*
X146685000Y-89134000D01*
X146685000Y-89154000D01*
G36*
X163733114Y-90412663D02*
G01*
X163965513Y-90508926D01*
X164212226Y-90558000D01*
X164463774Y-90558000D01*
X164710487Y-90508926D01*
X164763374Y-90487019D01*
X165056001Y-90779647D01*
X165056000Y-106011854D01*
X164982139Y-105958353D01*
X164754646Y-105853875D01*
X164662213Y-105825842D01*
X164465000Y-105897662D01*
X164465000Y-106934000D01*
X164485000Y-106934000D01*
X164485000Y-107188000D01*
X164465000Y-107188000D01*
X164465000Y-107208000D01*
X164211000Y-107208000D01*
X164211000Y-107188000D01*
X164191000Y-107188000D01*
X164191000Y-106934000D01*
X164211000Y-106934000D01*
X164211000Y-105897662D01*
X164013787Y-105825842D01*
X163921354Y-105853875D01*
X163693861Y-105958353D01*
X163620000Y-106011853D01*
X163620000Y-90578097D01*
X163622669Y-90550999D01*
X163620000Y-90523901D01*
X163620000Y-90523891D01*
X163612012Y-90442789D01*
X163580448Y-90338737D01*
X163557099Y-90295054D01*
X163733114Y-90412663D01*
G37*
X163733114Y-90412663D02*
X163965513Y-90508926D01*
X164212226Y-90558000D01*
X164463774Y-90558000D01*
X164710487Y-90508926D01*
X164763374Y-90487019D01*
X165056001Y-90779647D01*
X165056000Y-106011854D01*
X164982139Y-105958353D01*
X164754646Y-105853875D01*
X164662213Y-105825842D01*
X164465000Y-105897662D01*
X164465000Y-106934000D01*
X164485000Y-106934000D01*
X164485000Y-107188000D01*
X164465000Y-107188000D01*
X164465000Y-107208000D01*
X164211000Y-107208000D01*
X164211000Y-107188000D01*
X164191000Y-107188000D01*
X164191000Y-106934000D01*
X164211000Y-106934000D01*
X164211000Y-105897662D01*
X164013787Y-105825842D01*
X163921354Y-105853875D01*
X163693861Y-105958353D01*
X163620000Y-106011853D01*
X163620000Y-90578097D01*
X163622669Y-90550999D01*
X163620000Y-90523901D01*
X163620000Y-90523891D01*
X163612012Y-90442789D01*
X163580448Y-90338737D01*
X163557099Y-90295054D01*
X163733114Y-90412663D01*
G36*
X167005000Y-89154000D02*
G01*
X167025000Y-89154000D01*
X167025000Y-89408000D01*
X167005000Y-89408000D01*
X167005000Y-90444338D01*
X167202213Y-90516158D01*
X167294646Y-90488125D01*
X167522139Y-90383647D01*
X167724878Y-90236795D01*
X167895072Y-90053212D01*
X168026180Y-89839953D01*
X168113164Y-89605214D01*
X168041926Y-89408002D01*
X168141244Y-89408002D01*
X168190074Y-89653487D01*
X168286337Y-89885886D01*
X168426089Y-90095040D01*
X168603960Y-90272911D01*
X168813114Y-90412663D01*
X169045513Y-90508926D01*
X169292226Y-90558000D01*
X169543774Y-90558000D01*
X169790487Y-90508926D01*
X169843374Y-90487019D01*
X170136000Y-90779646D01*
X170136001Y-106004918D01*
X170022886Y-105929337D01*
X169790487Y-105833074D01*
X169543774Y-105784000D01*
X169292226Y-105784000D01*
X169045513Y-105833074D01*
X168813114Y-105929337D01*
X168603960Y-106069089D01*
X168426089Y-106246960D01*
X168286337Y-106456114D01*
X168190074Y-106688513D01*
X168148000Y-106900034D01*
X168105926Y-106688513D01*
X168009663Y-106456114D01*
X167869911Y-106246960D01*
X167692040Y-106069089D01*
X167482886Y-105929337D01*
X167250487Y-105833074D01*
X167003774Y-105784000D01*
X166752226Y-105784000D01*
X166505513Y-105833074D01*
X166273114Y-105929337D01*
X166160000Y-106004917D01*
X166160000Y-90578097D01*
X166162669Y-90550999D01*
X166160000Y-90523901D01*
X166160000Y-90523891D01*
X166152012Y-90442789D01*
X166120448Y-90338737D01*
X166087968Y-90277971D01*
X166233861Y-90383647D01*
X166461354Y-90488125D01*
X166553787Y-90516158D01*
X166751000Y-90444338D01*
X166751000Y-89408000D01*
X166731000Y-89408000D01*
X166731000Y-89154000D01*
X166751000Y-89154000D01*
X166751000Y-89134000D01*
X167005000Y-89134000D01*
X167005000Y-89154000D01*
G37*
X167005000Y-89154000D02*
X167025000Y-89154000D01*
X167025000Y-89408000D01*
X167005000Y-89408000D01*
X167005000Y-90444338D01*
X167202213Y-90516158D01*
X167294646Y-90488125D01*
X167522139Y-90383647D01*
X167724878Y-90236795D01*
X167895072Y-90053212D01*
X168026180Y-89839953D01*
X168113164Y-89605214D01*
X168041926Y-89408002D01*
X168141244Y-89408002D01*
X168190074Y-89653487D01*
X168286337Y-89885886D01*
X168426089Y-90095040D01*
X168603960Y-90272911D01*
X168813114Y-90412663D01*
X169045513Y-90508926D01*
X169292226Y-90558000D01*
X169543774Y-90558000D01*
X169790487Y-90508926D01*
X169843374Y-90487019D01*
X170136000Y-90779646D01*
X170136001Y-106004918D01*
X170022886Y-105929337D01*
X169790487Y-105833074D01*
X169543774Y-105784000D01*
X169292226Y-105784000D01*
X169045513Y-105833074D01*
X168813114Y-105929337D01*
X168603960Y-106069089D01*
X168426089Y-106246960D01*
X168286337Y-106456114D01*
X168190074Y-106688513D01*
X168148000Y-106900034D01*
X168105926Y-106688513D01*
X168009663Y-106456114D01*
X167869911Y-106246960D01*
X167692040Y-106069089D01*
X167482886Y-105929337D01*
X167250487Y-105833074D01*
X167003774Y-105784000D01*
X166752226Y-105784000D01*
X166505513Y-105833074D01*
X166273114Y-105929337D01*
X166160000Y-106004917D01*
X166160000Y-90578097D01*
X166162669Y-90550999D01*
X166160000Y-90523901D01*
X166160000Y-90523891D01*
X166152012Y-90442789D01*
X166120448Y-90338737D01*
X166087968Y-90277971D01*
X166233861Y-90383647D01*
X166461354Y-90488125D01*
X166553787Y-90516158D01*
X166751000Y-90444338D01*
X166751000Y-89408000D01*
X166731000Y-89408000D01*
X166731000Y-89154000D01*
X166751000Y-89154000D01*
X166751000Y-89134000D01*
X167005000Y-89134000D01*
X167005000Y-89154000D01*
G36*
X141605000Y-89154000D02*
G01*
X141625000Y-89154000D01*
X141625000Y-89408000D01*
X141605000Y-89408000D01*
X141605000Y-90444338D01*
X141802213Y-90516158D01*
X141894646Y-90488125D01*
X142122139Y-90383647D01*
X142324878Y-90236795D01*
X142495072Y-90053212D01*
X142626180Y-89839953D01*
X142713164Y-89605214D01*
X142641926Y-89408002D01*
X142741244Y-89408002D01*
X142790074Y-89653487D01*
X142886337Y-89885886D01*
X143026089Y-90095040D01*
X143203960Y-90272911D01*
X143413114Y-90412663D01*
X143645513Y-90508926D01*
X143892226Y-90558000D01*
X144143774Y-90558000D01*
X144390487Y-90508926D01*
X144443374Y-90487019D01*
X144736001Y-90779647D01*
X144736000Y-106004917D01*
X144622886Y-105929337D01*
X144390487Y-105833074D01*
X144143774Y-105784000D01*
X143892226Y-105784000D01*
X143645513Y-105833074D01*
X143413114Y-105929337D01*
X143203960Y-106069089D01*
X143026089Y-106246960D01*
X142886337Y-106456114D01*
X142790074Y-106688513D01*
X142748000Y-106900034D01*
X142705926Y-106688513D01*
X142609663Y-106456114D01*
X142469911Y-106246960D01*
X142292040Y-106069089D01*
X142082886Y-105929337D01*
X141850487Y-105833074D01*
X141603774Y-105784000D01*
X141352226Y-105784000D01*
X141105513Y-105833074D01*
X140873114Y-105929337D01*
X140760000Y-106004917D01*
X140760000Y-90578097D01*
X140762669Y-90550999D01*
X140760000Y-90523901D01*
X140760000Y-90523891D01*
X140752012Y-90442789D01*
X140720448Y-90338737D01*
X140687968Y-90277971D01*
X140833861Y-90383647D01*
X141061354Y-90488125D01*
X141153787Y-90516158D01*
X141351000Y-90444338D01*
X141351000Y-89408000D01*
X141331000Y-89408000D01*
X141331000Y-89154000D01*
X141351000Y-89154000D01*
X141351000Y-89134000D01*
X141605000Y-89134000D01*
X141605000Y-89154000D01*
G37*
X141605000Y-89154000D02*
X141625000Y-89154000D01*
X141625000Y-89408000D01*
X141605000Y-89408000D01*
X141605000Y-90444338D01*
X141802213Y-90516158D01*
X141894646Y-90488125D01*
X142122139Y-90383647D01*
X142324878Y-90236795D01*
X142495072Y-90053212D01*
X142626180Y-89839953D01*
X142713164Y-89605214D01*
X142641926Y-89408002D01*
X142741244Y-89408002D01*
X142790074Y-89653487D01*
X142886337Y-89885886D01*
X143026089Y-90095040D01*
X143203960Y-90272911D01*
X143413114Y-90412663D01*
X143645513Y-90508926D01*
X143892226Y-90558000D01*
X144143774Y-90558000D01*
X144390487Y-90508926D01*
X144443374Y-90487019D01*
X144736001Y-90779647D01*
X144736000Y-106004917D01*
X144622886Y-105929337D01*
X144390487Y-105833074D01*
X144143774Y-105784000D01*
X143892226Y-105784000D01*
X143645513Y-105833074D01*
X143413114Y-105929337D01*
X143203960Y-106069089D01*
X143026089Y-106246960D01*
X142886337Y-106456114D01*
X142790074Y-106688513D01*
X142748000Y-106900034D01*
X142705926Y-106688513D01*
X142609663Y-106456114D01*
X142469911Y-106246960D01*
X142292040Y-106069089D01*
X142082886Y-105929337D01*
X141850487Y-105833074D01*
X141603774Y-105784000D01*
X141352226Y-105784000D01*
X141105513Y-105833074D01*
X140873114Y-105929337D01*
X140760000Y-106004917D01*
X140760000Y-90578097D01*
X140762669Y-90550999D01*
X140760000Y-90523901D01*
X140760000Y-90523891D01*
X140752012Y-90442789D01*
X140720448Y-90338737D01*
X140687968Y-90277971D01*
X140833861Y-90383647D01*
X141061354Y-90488125D01*
X141153787Y-90516158D01*
X141351000Y-90444338D01*
X141351000Y-89408000D01*
X141331000Y-89408000D01*
X141331000Y-89154000D01*
X141351000Y-89154000D01*
X141351000Y-89134000D01*
X141605000Y-89134000D01*
X141605000Y-89154000D01*
G36*
X133985000Y-89154000D02*
G01*
X134005000Y-89154000D01*
X134005000Y-89408000D01*
X133985000Y-89408000D01*
X133985000Y-90444338D01*
X134182213Y-90516158D01*
X134274646Y-90488125D01*
X134502139Y-90383647D01*
X134704878Y-90236795D01*
X134875072Y-90053212D01*
X135006180Y-89839953D01*
X135093164Y-89605214D01*
X135021926Y-89408002D01*
X135121244Y-89408002D01*
X135170074Y-89653487D01*
X135266337Y-89885886D01*
X135406089Y-90095040D01*
X135583960Y-90272911D01*
X135793114Y-90412663D01*
X136025513Y-90508926D01*
X136272226Y-90558000D01*
X136523774Y-90558000D01*
X136770487Y-90508926D01*
X136823374Y-90487019D01*
X137116001Y-90779647D01*
X137116000Y-106004917D01*
X137002886Y-105929337D01*
X136770487Y-105833074D01*
X136523774Y-105784000D01*
X136272226Y-105784000D01*
X136025513Y-105833074D01*
X135793114Y-105929337D01*
X135583960Y-106069089D01*
X135406089Y-106246960D01*
X135266337Y-106456114D01*
X135170074Y-106688513D01*
X135128000Y-106900034D01*
X135085926Y-106688513D01*
X134989663Y-106456114D01*
X134849911Y-106246960D01*
X134672040Y-106069089D01*
X134462886Y-105929337D01*
X134230487Y-105833074D01*
X133983774Y-105784000D01*
X133732226Y-105784000D01*
X133485513Y-105833074D01*
X133253114Y-105929337D01*
X133140000Y-106004917D01*
X133140000Y-90578097D01*
X133142669Y-90550999D01*
X133140000Y-90523901D01*
X133140000Y-90523891D01*
X133132012Y-90442789D01*
X133100448Y-90338737D01*
X133067968Y-90277971D01*
X133213861Y-90383647D01*
X133441354Y-90488125D01*
X133533787Y-90516158D01*
X133731000Y-90444338D01*
X133731000Y-89408000D01*
X133711000Y-89408000D01*
X133711000Y-89154000D01*
X133731000Y-89154000D01*
X133731000Y-89134000D01*
X133985000Y-89134000D01*
X133985000Y-89154000D01*
G37*
X133985000Y-89154000D02*
X134005000Y-89154000D01*
X134005000Y-89408000D01*
X133985000Y-89408000D01*
X133985000Y-90444338D01*
X134182213Y-90516158D01*
X134274646Y-90488125D01*
X134502139Y-90383647D01*
X134704878Y-90236795D01*
X134875072Y-90053212D01*
X135006180Y-89839953D01*
X135093164Y-89605214D01*
X135021926Y-89408002D01*
X135121244Y-89408002D01*
X135170074Y-89653487D01*
X135266337Y-89885886D01*
X135406089Y-90095040D01*
X135583960Y-90272911D01*
X135793114Y-90412663D01*
X136025513Y-90508926D01*
X136272226Y-90558000D01*
X136523774Y-90558000D01*
X136770487Y-90508926D01*
X136823374Y-90487019D01*
X137116001Y-90779647D01*
X137116000Y-106004917D01*
X137002886Y-105929337D01*
X136770487Y-105833074D01*
X136523774Y-105784000D01*
X136272226Y-105784000D01*
X136025513Y-105833074D01*
X135793114Y-105929337D01*
X135583960Y-106069089D01*
X135406089Y-106246960D01*
X135266337Y-106456114D01*
X135170074Y-106688513D01*
X135128000Y-106900034D01*
X135085926Y-106688513D01*
X134989663Y-106456114D01*
X134849911Y-106246960D01*
X134672040Y-106069089D01*
X134462886Y-105929337D01*
X134230487Y-105833074D01*
X133983774Y-105784000D01*
X133732226Y-105784000D01*
X133485513Y-105833074D01*
X133253114Y-105929337D01*
X133140000Y-106004917D01*
X133140000Y-90578097D01*
X133142669Y-90550999D01*
X133140000Y-90523901D01*
X133140000Y-90523891D01*
X133132012Y-90442789D01*
X133100448Y-90338737D01*
X133067968Y-90277971D01*
X133213861Y-90383647D01*
X133441354Y-90488125D01*
X133533787Y-90516158D01*
X133731000Y-90444338D01*
X133731000Y-89408000D01*
X133711000Y-89408000D01*
X133711000Y-89154000D01*
X133731000Y-89154000D01*
X133731000Y-89134000D01*
X133985000Y-89134000D01*
X133985000Y-89154000D01*
G36*
X159385000Y-89154000D02*
G01*
X159405000Y-89154000D01*
X159405000Y-89408000D01*
X159385000Y-89408000D01*
X159385000Y-90444338D01*
X159582213Y-90516158D01*
X159674646Y-90488125D01*
X159902139Y-90383647D01*
X160104878Y-90236795D01*
X160275072Y-90053212D01*
X160406180Y-89839953D01*
X160493164Y-89605214D01*
X160421926Y-89408002D01*
X160521244Y-89408002D01*
X160570074Y-89653487D01*
X160666337Y-89885886D01*
X160806089Y-90095040D01*
X160983960Y-90272911D01*
X161193114Y-90412663D01*
X161425513Y-90508926D01*
X161672226Y-90558000D01*
X161923774Y-90558000D01*
X162170487Y-90508926D01*
X162223374Y-90487019D01*
X162516001Y-90779647D01*
X162516000Y-106004917D01*
X162402886Y-105929337D01*
X162170487Y-105833074D01*
X161923774Y-105784000D01*
X161672226Y-105784000D01*
X161425513Y-105833074D01*
X161193114Y-105929337D01*
X160983960Y-106069089D01*
X160806089Y-106246960D01*
X160666337Y-106456114D01*
X160570074Y-106688513D01*
X160528000Y-106900034D01*
X160485926Y-106688513D01*
X160389663Y-106456114D01*
X160249911Y-106246960D01*
X160072040Y-106069089D01*
X159862886Y-105929337D01*
X159630487Y-105833074D01*
X159383774Y-105784000D01*
X159132226Y-105784000D01*
X158885513Y-105833074D01*
X158653114Y-105929337D01*
X158540000Y-106004917D01*
X158540000Y-90578097D01*
X158542669Y-90550999D01*
X158540000Y-90523901D01*
X158540000Y-90523891D01*
X158532012Y-90442789D01*
X158500448Y-90338737D01*
X158467968Y-90277971D01*
X158613861Y-90383647D01*
X158841354Y-90488125D01*
X158933787Y-90516158D01*
X159131000Y-90444338D01*
X159131000Y-89408000D01*
X159111000Y-89408000D01*
X159111000Y-89154000D01*
X159131000Y-89154000D01*
X159131000Y-89134000D01*
X159385000Y-89134000D01*
X159385000Y-89154000D01*
G37*
X159385000Y-89154000D02*
X159405000Y-89154000D01*
X159405000Y-89408000D01*
X159385000Y-89408000D01*
X159385000Y-90444338D01*
X159582213Y-90516158D01*
X159674646Y-90488125D01*
X159902139Y-90383647D01*
X160104878Y-90236795D01*
X160275072Y-90053212D01*
X160406180Y-89839953D01*
X160493164Y-89605214D01*
X160421926Y-89408002D01*
X160521244Y-89408002D01*
X160570074Y-89653487D01*
X160666337Y-89885886D01*
X160806089Y-90095040D01*
X160983960Y-90272911D01*
X161193114Y-90412663D01*
X161425513Y-90508926D01*
X161672226Y-90558000D01*
X161923774Y-90558000D01*
X162170487Y-90508926D01*
X162223374Y-90487019D01*
X162516001Y-90779647D01*
X162516000Y-106004917D01*
X162402886Y-105929337D01*
X162170487Y-105833074D01*
X161923774Y-105784000D01*
X161672226Y-105784000D01*
X161425513Y-105833074D01*
X161193114Y-105929337D01*
X160983960Y-106069089D01*
X160806089Y-106246960D01*
X160666337Y-106456114D01*
X160570074Y-106688513D01*
X160528000Y-106900034D01*
X160485926Y-106688513D01*
X160389663Y-106456114D01*
X160249911Y-106246960D01*
X160072040Y-106069089D01*
X159862886Y-105929337D01*
X159630487Y-105833074D01*
X159383774Y-105784000D01*
X159132226Y-105784000D01*
X158885513Y-105833074D01*
X158653114Y-105929337D01*
X158540000Y-106004917D01*
X158540000Y-90578097D01*
X158542669Y-90550999D01*
X158540000Y-90523901D01*
X158540000Y-90523891D01*
X158532012Y-90442789D01*
X158500448Y-90338737D01*
X158467968Y-90277971D01*
X158613861Y-90383647D01*
X158841354Y-90488125D01*
X158933787Y-90516158D01*
X159131000Y-90444338D01*
X159131000Y-89408000D01*
X159111000Y-89408000D01*
X159111000Y-89154000D01*
X159131000Y-89154000D01*
X159131000Y-89134000D01*
X159385000Y-89134000D01*
X159385000Y-89154000D01*
%TD*%
M02*
