M48
; DRILL file {KiCad (5.1.6)-1} date 09/20/22 10:12:07
; FORMAT={-:-/ absolute / metric / decimal}
; #@! TF.CreationDate,2022-09-20T10:12:07-04:00
; #@! TF.GenerationSoftware,Kicad,Pcbnew,(5.1.6)-1
; #@! TF.FileFunction,Plated,1,4,PTH
FMAT,2
METRIC
T1C1.000
%
G90
G05
T1
X131.318Y-107.061
X131.318Y-109.601
X133.858Y-107.061
X133.858Y-109.601
X136.398Y-107.061
X136.398Y-109.601
X138.938Y-107.061
X138.938Y-109.601
X141.478Y-107.061
X141.478Y-109.601
X144.018Y-107.061
X144.018Y-109.601
X146.558Y-107.061
X146.558Y-109.601
X149.098Y-107.061
X149.098Y-109.601
X151.638Y-107.061
X151.638Y-109.601
X154.178Y-107.061
X154.178Y-109.601
X156.718Y-107.061
X156.718Y-109.601
X159.258Y-107.061
X159.258Y-109.601
X161.798Y-107.061
X161.798Y-109.601
X164.338Y-107.061
X164.338Y-109.601
X166.878Y-107.061
X166.878Y-109.601
X169.418Y-107.061
X169.418Y-109.601
X171.958Y-107.061
X171.958Y-109.601
X131.318Y-86.741
X131.318Y-89.281
X133.858Y-86.741
X133.858Y-89.281
X136.398Y-86.741
X136.398Y-89.281
X138.938Y-86.741
X138.938Y-89.281
X141.478Y-86.741
X141.478Y-89.281
X144.018Y-86.741
X144.018Y-89.281
X146.558Y-86.741
X146.558Y-89.281
X149.098Y-86.741
X149.098Y-89.281
X151.638Y-86.741
X151.638Y-89.281
X154.178Y-86.741
X154.178Y-89.281
X156.718Y-86.741
X156.718Y-89.281
X159.258Y-86.741
X159.258Y-89.281
X161.798Y-86.741
X161.798Y-89.281
X164.338Y-86.741
X164.338Y-89.281
X166.878Y-86.741
X166.878Y-89.281
X169.418Y-86.741
X169.418Y-89.281
X171.958Y-86.741
X171.958Y-89.281
T0
M30
